0
SECTION
2
HEADER
9
$INSUNITS
70
4
9
$ACADVER
1
AC1014
9
$HANDSEED
5
FFFF
0
ENDSEC
0
SECTION
2
TABLES
0
TABLE
2
VPORT
5
8
100
AcDbSymbolTable
0
ENDTAB
0
TABLE
2
LTYPE
5
5
100
AcDbSymbolTable
0
LTYPE
5
14
100
AcDbSymbolTableRecord
100
AcDbLinetypeTableRecord
2
BYBLOCK
70
0
0
LTYPE
5
15
100
AcDbSymbolTableRecord
100
AcDbLinetypeTableRecord
2
BYLAYER
70
0
0
ENDTAB
0
TABLE
2
LAYER
5
2
100
AcDbSymbolTable
70
2
0
LAYER
5
50
100
AcDbSymbolTableRecord
100
AcDbLayerTableRecord
2
0
70
0
6
CONTINUOUS
0
ENDTAB
0
TABLE
2
STYLE
5
3
100
AcDbSymbolTable
70
1
0
STYLE
5
11
100
AcDbSymbolTableRecord
100
AcDbTextStyleTableRecord
2
STANDARD
70
0
0
ENDTAB
0
TABLE
2
VIEW
5
6
100
AcDbSymbolTable
70
0
0
ENDTAB
0
TABLE
2
UCS
5
7
100
AcDbSymbolTable
70
0
0
ENDTAB
0
TABLE
2
APPID
5
9
100
AcDbSymbolTable
70
2
0
APPID
5
12
100
AcDbSymbolTableRecord
100
AcDbRegAppTableRecord
2
ACAD
70
0
0
ENDTAB
0
TABLE
2
DIMSTYLE
5
A
100
AcDbSymbolTable
70
1
0
ENDTAB
0
TABLE
2
BLOCK_RECORD
5
1
100
AcDbSymbolTable
70
1
0
BLOCK_RECORD
5
1F
100
AcDbSymbolTableRecord
100
AcDbBlockTableRecord
2
*MODEL_SPACE
0
BLOCK_RECORD
5
1B
100
AcDbSymbolTableRecord
100
AcDbBlockTableRecord
2
*PAPER_SPACE
0
ENDTAB
0
ENDSEC
0
SECTION
2
BLOCKS
0
BLOCK
5
20
100
AcDbEntity
100
AcDbBlockBegin
2
*MODEL_SPACE
0
ENDBLK
5
21
100
AcDbEntity
100
AcDbBlockEnd
0
BLOCK
5
1C
100
AcDbEntity
100
AcDbBlockBegin
2
*PAPER_SPACE
0
ENDBLK
5
1D
100
AcDbEntity
100
AcDbBlockEnd
0
ENDSEC
0
SECTION
2
ENTITIES
0
LWPOLYLINE
5
100
100
AcDbEntity
8
0
100
AcDbPolyline
90
4
70
1
43
0.0
10
0.29970987801975824
20
-12.539632979133582
10
0.29970987801975824
20
7.4596329791335778
42
0.99999999999999989
10
-8.6991687916257199
20
7.4596329791335769
10
-8.6991687916257199
20
-12.539632979133582
42
0.99999999999999989
0
LWPOLYLINE
5
101
100
AcDbEntity
8
0
100
AcDbPolyline
90
4
70
1
43
0.0
10
110.29970987801974
20
-12.539632979133582
10
110.29970987801974
20
7.4596329791335778
42
0.99999999999999989
10
101.30083120837426
20
7.4596329791335769
10
101.30083120837426
20
-12.539632979133582
42
0.99999999999999989
0
LWPOLYLINE
5
102
100
AcDbEntity
8
0
100
AcDbPolyline
90
4
70
1
43
0.0
10
24.599958098544761
20
16.959854446977044
10
24.599958098544761
20
-22.039854446977046
10
77.000041901455219
20
-22.039854446977046
10
77.000041901455219
20
16.959854446977044
0
LWPOLYLINE
5
103
100
AcDbEntity
8
0
100
AcDbPolyline
90
14
70
1
43
0.0
10
19.799912313533671
20
-137.54014628925603
42
-0.41421356237309503
10
14.799912313533671
20
-132.54014628925603
10
14.799912313533667
20
-97.540100594507265
10
-19.199831068137748
20
-97.540100594507322
42
-0.41421356237309503
10
-44.199831068137748
20
-72.540100594507322
10
-44.199831068137705
20
67.46010059450731
42
-0.41421356237309503
10
-19.19983106813774
20
92.460100594507267
10
120.79983106813773
20
92.460100594507324
42
-0.41421356237309503
10
145.79983106813773
20
67.46010059450731
10
145.79983106813768
20
-72.540100594507322
42
-0.41421356237309503
10
120.79983106813773
20
-97.540100594507265
10
86.800087686466313
20
-97.540100594507265
10
86.800087686466298
20
-132.54014628925603
42
-0.41421356237309503
10
81.800087686466313
20
-137.540146289256
0
CIRCLE
5
104
100
AcDbEntity
8
0
100
AcDbCircle
10
-29.326524163602457
20
-72.413475836397382
30
0
40
1.2501716919220773
210
0
220
0
230
1
0
CIRCLE
5
105
100
AcDbEntity
8
0
100
AcDbCircle
10
120.67347583639751
20
-82.66652416360229
30
0
40
1.2501716919220773
210
0
220
0
230
1
0
CIRCLE
5
106
100
AcDbEntity
8
0
100
AcDbCircle
10
120.67347583639751
20
77.586524163602292
30
0
40
1.2501716919220773
210
0
220
0
230
1
0
CIRCLE
5
107
100
AcDbEntity
8
0
100
AcDbCircle
10
-19.07347583639752
20
77.586524163602292
30
0
40
1.2501716919220773
210
0
220
0
230
1
0
CIRCLE
5
108
100
AcDbEntity
8
0
100
AcDbCircle
10
6.6734758363975288
20
31.333475836397465
30
0
40
1.2501716919220773
210
0
220
0
230
1
0
CIRCLE
5
109
100
AcDbEntity
8
0
100
AcDbCircle
10
84.673475836397515
20
41.58652416360237
30
0
40
1.2501716919220773
210
0
220
0
230
1
0
CIRCLE
5
110
100
AcDbEntity
8
0
100
AcDbCircle
10
84.673475836397515
20
-46.666524163602375
30
0
40
1.2501716919220773
210
0
220
0
230
1
0
CIRCLE
5
111
100
AcDbEntity
8
0
100
AcDbCircle
10
16.926524163602465
20
-46.666524163602375
30
0
40
1.2501716919220773
210
0
220
0
230
1
0
CIRCLE
5
112
100
AcDbEntity
8
0
100
AcDbCircle
10
-19.07347583639752
20
-82.66652416360229
30
0
40
1.2501716919220773
210
0
220
0
230
1
0
CIRCLE
5
113
100
AcDbEntity
8
0
100
AcDbCircle
10
130.92652416360244
20
-72.413475836397382
30
0
40
1.2501716919220773
210
0
220
0
230
1
0
CIRCLE
5
114
100
AcDbEntity
8
0
100
AcDbCircle
10
130.92652416360244
20
67.333475836397383
30
0
40
1.2501716919220773
210
0
220
0
230
1
0
CIRCLE
5
115
100
AcDbEntity
8
0
100
AcDbCircle
10
-29.326524163602457
20
67.333475836397383
30
0
40
1.2501716919220773
210
0
220
0
230
1
0
CIRCLE
5
116
100
AcDbEntity
8
0
100
AcDbCircle
10
16.926524163602469
20
41.58652416360237
30
0
40
1.2501716919220773
210
0
220
0
230
1
0
CIRCLE
5
117
100
AcDbEntity
8
0
100
AcDbCircle
10
94.926524163602451
20
31.333475836397461
30
0
40
1.2501716919220773
210
0
220
0
230
1
0
CIRCLE
5
118
100
AcDbEntity
8
0
100
AcDbCircle
10
94.926524163602451
20
-36.413475836397467
30
0
40
1.2501716919220773
210
0
220
0
230
1
0
CIRCLE
5
119
100
AcDbEntity
8
0
100
AcDbCircle
10
6.6734758363975288
20
-36.41347583639746
30
0
40
1.2501716919220773
210
0
220
0
230
1
0
CIRCLE
5
120
100
AcDbEntity
8
0
100
AcDbCircle
10
17.059999999999995
20
22.859999999999943
30
0
40
2.1823401656228296
210
0
220
0
230
1
0
CIRCLE
5
121
100
AcDbEntity
8
0
100
AcDbCircle
10
17.059999999999995
20
-27.939999999999941
30
0
40
2.1823401656228296
210
0
220
0
230
1
0
CIRCLE
5
122
100
AcDbEntity
8
0
100
AcDbCircle
10
84.539999999999992
20
22.859999999999943
30
0
40
2.1823401656228296
210
0
220
0
230
1
0
CIRCLE
5
123
100
AcDbEntity
8
0
100
AcDbCircle
10
84.539999999999992
20
-27.939999999999941
30
0
40
2.1823401656228296
210
0
220
0
230
1
0
CIRCLE
5
124
100
AcDbEntity
8
0
100
AcDbCircle
10
21.799999999999994
20
81.959999999999809
30
0
40
1.2502141553197532
210
0
220
0
230
1
0
CIRCLE
5
125
100
AcDbEntity
8
0
100
AcDbCircle
10
21.799999999999994
20
32.959999999999916
30
0
40
1.2502141553197532
210
0
220
0
230
1
0
CIRCLE
5
126
100
AcDbEntity
8
0
100
AcDbCircle
10
79.799999999999983
20
81.959999999999809
30
0
40
1.2502141553197532
210
0
220
0
230
1
0
CIRCLE
5
127
100
AcDbEntity
8
0
100
AcDbCircle
10
79.799999999999983
20
32.959999999999916
30
0
40
1.2502141553197532
210
0
220
0
230
1
0
CIRCLE
5
128
100
AcDbEntity
8
0
100
AcDbCircle
10
34.799999999999997
20
-39.539999999999921
30
0
40
2.0000949555705123
210
0
220
0
230
1
0
CIRCLE
5
129
100
AcDbEntity
8
0
100
AcDbCircle
10
70.799999999999983
20
-85.539999999999822
30
0
40
2.0000949555705123
210
0
220
0
230
1
0
CIRCLE
5
130
100
AcDbEntity
8
0
100
AcDbCircle
10
70.799999999999983
20
-125.53999999999974
30
0
40
2.0000949555705123
210
0
220
0
230
1
0
CIRCLE
5
131
100
AcDbEntity
8
0
100
AcDbCircle
10
42.280999999999992
20
-120.48999999999972
30
0
40
1.6502045607198934
210
0
220
0
230
1
0
CIRCLE
5
132
100
AcDbEntity
8
0
100
AcDbCircle
10
59.300999999999988
20
-107.53999999999976
30
0
40
1.6502045607198934
210
0
220
0
230
1
0
CIRCLE
5
133
100
AcDbEntity
8
0
100
AcDbCircle
10
130.79999999999998
20
77.459999999999823
30
0
40
1.4300430250829652
210
0
220
0
230
1
0
CIRCLE
5
134
100
AcDbEntity
8
0
100
AcDbCircle
10
130.79999999999998
20
-82.539999999999822
30
0
40
1.4300430250829652
210
0
220
0
230
1
0
CIRCLE
5
135
100
AcDbEntity
8
0
100
AcDbCircle
10
-29.199999999999989
20
77.459999999999823
30
0
40
1.4300430250829652
210
0
220
0
230
1
0
CIRCLE
5
136
100
AcDbEntity
8
0
100
AcDbCircle
10
-29.199999999999989
20
-82.539999999999822
30
0
40
1.4300430250829652
210
0
220
0
230
1
0
CIRCLE
5
137
100
AcDbEntity
8
0
100
AcDbCircle
10
75.83364864333511
20
-95.729237445468328
30
0
40
1.5871525558923172
210
0
220
0
230
1
0
CIRCLE
5
138
100
AcDbEntity
8
0
100
AcDbCircle
10
75.83364864333511
20
-125.89173744546829
30
0
40
1.5871525558923172
210
0
220
0
230
1
0
CIRCLE
5
139
100
AcDbEntity
8
0
100
AcDbCircle
10
52.021148643335131
20
-95.729237445468328
30
0
40
1.5871525558923172
210
0
220
0
230
1
0
CIRCLE
5
140
100
AcDbEntity
8
0
100
AcDbCircle
10
52.021148643335131
20
-125.89173744546829
30
0
40
1.5871525558923172
210
0
220
0
230
1
0
LWPOLYLINE
5
141
100
AcDbEntity
8
0
100
AcDbPolyline
90
8
70
1
43
0.0
10
-3.4021692259333114
20
-77.950271187191817
10
-3.4023095597036663
20
-77.950291758864154
42
-0.41417895063204224
10
-4.9014856910984257
20
-76.449645515704404
10
-4.8872824646920163
20
-43.493963891566729
42
-0.41414277944251676
10
-3.3869986457865964
20
-41.994610387772767
10
-3.3868636842664817
20
-41.994610407959797
42
-0.41428496066821274
10
-1.8871446486180041
20
-43.495256851008648
10
-1.901347866148936
20
-76.450917881481843
42
-0.41424773947583193
0
LWPOLYLINE
5
142
100
AcDbEntity
8
0
100
AcDbPolyline
90
8
70
1
43
0.0
10
108.73769044029635
20
-77.950291758864154
42
-0.41417895063204052
10
107.23851430890159
20
-76.449645515704404
10
107.25271753530799
20
-43.493963891566729
42
-0.41414277944251415
10
108.75300135421341
20
-41.994610387772767
10
108.75313631573354
20
-41.994610407959797
42
-0.41428496066821013
10
110.25285535138201
20
-43.495256851008648
10
110.23865213385108
20
-76.450917881481843
42
-0.4142477394758311
10
108.73783077406671
20
-77.950271187191817
0
CIRCLE
5
143
100
AcDbEntity
8
0
100
AcDbCircle
10
20.000000298023224
20
-111.00000157952309
30
0
40
1.0000000149011612
210
0
220
0
230
1
0
CIRCLE
5
144
100
AcDbEntity
8
0
100
AcDbCircle
10
42.800000298023228
20
-111.00000157952309
30
0
40
1.0000000149011612
210
0
220
0
230
1
0
CIRCLE
5
145
100
AcDbEntity
8
0
100
AcDbCircle
10
42.800000298023228
20
-134.50000157952309
30
0
40
1.0000000149011612
210
0
220
0
230
1
0
CIRCLE
5
146
100
AcDbEntity
8
0
100
AcDbCircle
10
20.000000298023224
20
-134.50000157952309
30
0
40
1.0000000149011612
210
0
220
0
230
1
0
CIRCLE
5
147
100
AcDbEntity
8
0
100
AcDbCircle
10
76.800000298023221
20
-134.50000157952309
30
0
40
1.0000000149011612
210
0
220
0
230
1
0
CIRCLE
5
148
100
AcDbEntity
8
0
100
AcDbCircle
10
76.800000298023221
20
-111.00000157952309
30
0
40
1.0000000149011612
210
0
220
0
230
1
0
CIRCLE
5
149
100
AcDbEntity
8
0
100
AcDbCircle
10
54.000000298023217
20
-111.00000157952309
30
0
40
1.0000000149011612
210
0
220
0
230
1
0
CIRCLE
5
150
100
AcDbEntity
8
0
100
AcDbCircle
10
54.000000298023217
20
-134.50000157952309
30
0
40
1.0000000149011612
210
0
220
0
230
1
0
ENDSEC
0
SECTION
2
OBJECTS
0
DICTIONARY
5
C
100
AcDbDictionary
3
ACAD_GROUP
350
D
3
ACAD_MLINESTYLE
350
17
0
DICTIONARY
5
D
100
AcDbDictionary
0
DICTIONARY
5
1A
330
C
100
AcDbDictionary
0
DICTIONARY
5
17
100
AcDbDictionary
0
ENDSEC
0
EOF
