0
SECTION
2
HEADER
9
$INSUNITS
70
4
9
$ACADVER
1
AC1014
9
$HANDSEED
5
FFFF
0
ENDSEC
0
SECTION
2
TABLES
0
TABLE
2
VPORT
5
8
100
AcDbSymbolTable
0
ENDTAB
0
TABLE
2
LTYPE
5
5
100
AcDbSymbolTable
0
LTYPE
5
14
100
AcDbSymbolTableRecord
100
AcDbLinetypeTableRecord
2
BYBLOCK
70
0
0
LTYPE
5
15
100
AcDbSymbolTableRecord
100
AcDbLinetypeTableRecord
2
BYLAYER
70
0
0
ENDTAB
0
TABLE
2
LAYER
5
2
100
AcDbSymbolTable
70
2
0
LAYER
5
50
100
AcDbSymbolTableRecord
100
AcDbLayerTableRecord
2
0
70
0
6
CONTINUOUS
0
ENDTAB
0
TABLE
2
STYLE
5
3
100
AcDbSymbolTable
70
1
0
STYLE
5
11
100
AcDbSymbolTableRecord
100
AcDbTextStyleTableRecord
2
STANDARD
70
0
0
ENDTAB
0
TABLE
2
VIEW
5
6
100
AcDbSymbolTable
70
0
0
ENDTAB
0
TABLE
2
UCS
5
7
100
AcDbSymbolTable
70
0
0
ENDTAB
0
TABLE
2
APPID
5
9
100
AcDbSymbolTable
70
2
0
APPID
5
12
100
AcDbSymbolTableRecord
100
AcDbRegAppTableRecord
2
ACAD
70
0
0
ENDTAB
0
TABLE
2
DIMSTYLE
5
A
100
AcDbSymbolTable
70
1
0
ENDTAB
0
TABLE
2
BLOCK_RECORD
5
1
100
AcDbSymbolTable
70
1
0
BLOCK_RECORD
5
1F
100
AcDbSymbolTableRecord
100
AcDbBlockTableRecord
2
*MODEL_SPACE
0
BLOCK_RECORD
5
1B
100
AcDbSymbolTableRecord
100
AcDbBlockTableRecord
2
*PAPER_SPACE
0
ENDTAB
0
ENDSEC
0
SECTION
2
BLOCKS
0
BLOCK
5
20
100
AcDbEntity
100
AcDbBlockBegin
2
*MODEL_SPACE
0
ENDBLK
5
21
100
AcDbEntity
100
AcDbBlockEnd
0
BLOCK
5
1C
100
AcDbEntity
100
AcDbBlockBegin
2
*PAPER_SPACE
0
ENDBLK
5
1D
100
AcDbEntity
100
AcDbBlockEnd
0
ENDSEC
0
SECTION
2
ENTITIES
0
LINE
5
100
100
AcDbEntity
8
0
100
AcDbLine
10
-92.984932650641809
20
-2.1133539742359977
30
0
11
-92.984932650641809
21
-54.086646025764004
31
0
0
SPLINE
5
101
100
AcDbEntity
8
0
100
AcDbSpline
70
4
71
3
72
10
73
6
74
0
42
0.000000001
43
0.0000000001
44
0.0000000001
40
5.4981297601202996
40
5.4981297601202996
40
5.4981297601202996
40
5.4981297601202996
40
5.8906575336499403
40
5.8906575336499403
40
6.2831853071795898
40
6.2831853071795898
40
6.2831853071795898
40
6.2831853071795898
41
1
41
1
41
1
41
1
41
1
41
1
10
-92.984932650641809
20
-54.086646025764004
30
0
10
-92.984932650632715
20
-54.741201288101003
30
0
10
-92.854866372005802
20
-55.395173981521097
30
0
10
-92.354188976236486
20
-56.604158693752296
30
0
10
-91.983857763648899
20
-57.158494412161794
30
0
10
-91.521176087904195
20
-57.621176087904196
30
0
0
SPLINE
5
102
100
AcDbEntity
8
0
100
AcDbSpline
70
4
71
3
72
10
73
6
74
0
42
0.000000001
43
0.0000000001
44
0.0000000001
40
4.3368086899420202e-16
40
4.3368086899420202e-16
40
4.3368086899420202e-16
40
4.3368086899420202e-16
40
0.39252777352964002
40
0.39252777352964002
40
0.78505554705927905
40
0.78505554705927905
40
0.78505554705927905
40
0.78505554705927905
41
1
41
1
41
1
41
1
41
1
41
1
10
-91.521176087904195
20
-57.621176087904196
30
0
10
-91.058494412159504
20
-58.083857763645497
30
0
10
-90.504158693751293
20
-58.454188976236907
30
0
10
-89.295173981522112
20
-58.954866372005299
30
0
10
-88.641201288100291
20
-59.084932650640702
30
0
10
-87.986646025764017
20
-59.084932650641797
30
0
0
LINE
5
103
100
AcDbEntity
8
0
100
AcDbLine
10
-87.986646025764003
20
-59.084932650641797
30
0
11
-2.0133539742359829
21
-59.084932650641797
31
0
0
SPLINE
5
104
100
AcDbEntity
8
0
100
AcDbSpline
70
4
71
3
72
10
73
6
74
0
42
0.000000001
43
0.0000000001
44
0.0000000001
40
-8.8817841970012504e-16
40
-8.8817841970012504e-16
40
-8.8817841970012504e-16
40
-8.8817841970012504e-16
40
0.39252777352964002
40
0.39252777352964002
40
0.78505554705928104
40
0.78505554705928104
40
0.78505554705928104
40
0.78505554705928104
41
1
41
1
41
1
41
1
41
1
41
1
10
1.5211760879042036
20
-57.621176087904196
30
0
10
1.9838577636458066
20
-57.158494412158099
30
0
10
2.3541889762369017
20
-56.604158693753604
30
0
10
2.8548663720053025
20
-55.395173981519903
30
0
10
2.9849326506327056
20
-54.741201288101998
30
0
10
2.9849326506418006
20
-54.086646025764004
30
0
0
LINE
5
105
100
AcDbEntity
8
0
100
AcDbLine
10
2.9849326506418006
20
-54.086646025764011
30
0
11
2.9849326506418006
21
-2.1133539742359986
31
0
0
SPLINE
5
106
100
AcDbEntity
8
0
100
AcDbSpline
70
4
71
3
72
10
73
6
74
0
42
0.000000001
43
0.0000000001
44
0.0000000001
40
5.4981297601203103
40
5.4981297601203103
40
5.4981297601203103
40
5.4981297601203103
40
5.89065753364995
40
5.89065753364995
40
6.2831853071795898
40
6.2831853071795898
40
6.2831853071795898
40
6.2831853071795898
41
1
41
1
41
1
41
1
41
1
41
1
10
2.9849326506418006
20
-2.1133539742359977
30
0
10
2.9849326506418006
20
-1.4587987118989953
30
0
10
2.8548663720057998
20
-0.80482601847890467
30
0
10
2.354188976236502
20
0.40415869375230012
30
0
10
1.9838577636444032
20
0.95849441215730136
30
0
10
1.5211760879042036
20
1.4211760879041979
30
0
0
SPLINE
5
107
100
AcDbEntity
8
0
100
AcDbSpline
70
4
71
3
72
10
73
6
74
0
42
0.000000001
43
0.0000000001
44
0.0000000001
40
0
40
0
40
0
40
0
40
0.39252777352964002
40
0.39252777352964002
40
0.78505554705928005
40
0.78505554705928005
40
0.78505554705928005
40
0.78505554705928005
41
1
41
1
41
1
41
1
41
1
41
1
10
1.5211760879042036
20
1.4211760879041979
30
0
10
1.0584944121603979
20
1.8838577636481013
30
0
10
0.50415869375360245
20
2.2541889762369047
30
0
10
-0.70482601848009807
20
2.7548663720054032
30
0
10
-1.3587987118979949
20
2.8849326506407023
30
0
10
-2.0133539742359918
20
2.8849326506417947
30
0
0
LINE
5
108
100
AcDbEntity
8
0
100
AcDbLine
10
-2.0133539742359923
20
2.8849326506417947
30
0
11
-87.986646025764017
21
2.8849326506417947
31
0
0
SPLINE
5
109
100
AcDbEntity
8
0
100
AcDbSpline
70
4
71
3
72
10
73
6
74
0
42
0.000000001
43
0.0000000001
44
0.0000000001
40
5.4981297601203103
40
5.4981297601203103
40
5.4981297601203103
40
5.4981297601203103
40
5.89065753364995
40
5.89065753364995
40
6.2831853071795898
40
6.2831853071795898
40
6.2831853071795898
40
6.2831853071795898
41
1
41
1
41
1
41
1
41
1
41
1
10
-87.986646025764017
20
2.8849326506417947
30
0
10
-88.641201288101001
20
2.8849326506407023
30
0
10
-89.295173981521117
20
2.7548663720058029
30
0
10
-90.504158693752302
20
2.2541889762364962
30
0
10
-91.058494412156705
20
1.8838577636438025
30
0
10
-91.521176087904308
20
1.4211760879041979
30
0
0
SPLINE
5
110
100
AcDbEntity
8
0
100
AcDbSpline
70
4
71
3
72
10
73
6
74
0
42
0.000000001
43
0.0000000001
44
0.0000000001
40
0
40
0
40
0
40
0
40
0.39252777352964002
40
0.39252777352964002
40
0.78505554705927905
40
0.78505554705927905
40
0.78505554705927905
40
0.78505554705927905
41
1
41
1
41
1
41
1
41
1
41
1
10
-91.521176087904308
20
1.4211760879041979
30
0
10
-91.983857763645403
20
0.9584944121585004
30
0
10
-92.354188976236998
20
0.40415869375250441
30
0
10
-92.854866372005404
20
-0.80482601847899349
30
0
10
-92.984932650632715
20
-1.4587987118988976
30
0
10
-92.984932650641809
20
-2.1133539742359977
30
0
0
CIRCLE
5
111
100
AcDbEntity
8
0
100
AcDbCircle
10
-88
20
-54.100000000000001
30
0
40
4.5828443874035401
210
0
220
-0
230
1
0
CIRCLE
5
112
100
AcDbEntity
8
0
100
AcDbCircle
10
-88
20
-2.0999999999999988
30
0
40
4.5828443874035401
210
0
220
-0
230
1
0
CIRCLE
5
113
100
AcDbEntity
8
0
100
AcDbCircle
10
-2.0000000000000018
20
-2.0999999999999988
30
0
40
4.5828443874035401
210
0
220
-0
230
1
0
CIRCLE
5
114
100
AcDbEntity
8
0
100
AcDbCircle
10
-2.0000000000000018
20
-54.100000000000001
30
0
40
4.5828443874035312
210
0
220
-0
230
1
0
LWPOLYLINE
5
115
100
AcDbEntity
8
0
100
AcDbPolyline
90
8
70
1
43
0.0
10
-18.000000283122063
20
-50.00000074505806
10
-12.000000163912773
20
-50.00000074505806
42
0.41421356237309503
10
-11.000000163912773
20
-49.00000074505806
10
-11.000000163912775
20
-42.000000610947609
42
0.4142135623730957
10
-12.000000163912773
20
-41.000000610947609
10
-18.00000028312207
20
-41.000000610947616
42
0.4142135623730937
10
-19.000000283122066
20
-42.000000610947609
10
-19.000000283122066
20
-49.00000074505806
42
0.41421356237309503
0
LWPOLYLINE
5
116
100
AcDbEntity
8
0
100
AcDbPolyline
90
8
70
1
43
0.0
10
-61.000000923871994
20
-50.00000074505806
10
-43.00000062584877
20
-50.00000074505806
42
0.41421356237309503
10
-42.00000062584877
20
-49.00000074505806
10
-42.00000062584877
20
-45.000000655651093
42
0.41421356237309503
10
-43.00000062584877
20
-44.000000655651093
10
-61.000000923871987
20
-44.000000655651093
42
0.41421356237309764
10
-62.000000923871994
20
-45.000000655651093
10
-62.000000923872001
20
-49.000000745058081
42
0.41421356237308982
0
LWPOLYLINE
5
117
100
AcDbEntity
8
0
100
AcDbPolyline
90
8
70
1
43
0.0
10
-78.910001184642312
20
-39.100000581145281
10
-75.410001117587086
20
-39.100000581145281
42
0.41421356237309503
10
-74.910001117587086
20
-38.600000581145288
10
-74.910001117587086
20
-37.100000543892378
42
0.41421356237309503
10
-75.410001117587086
20
-36.600000543892378
10
-78.910001184642312
20
-36.600000543892378
42
0.41421356237309503
10
-79.410001184642312
20
-37.100000543892378
10
-79.410001184642312
20
-38.600000581145288
42
0.41421356237309503
0
LWPOLYLINE
5
118
100
AcDbEntity
8
0
100
AcDbPolyline
90
8
70
1
43
0.0
10
-78.910001184642312
20
-29.000000581145287
42
-0.41421356237309503
10
-79.410001184642312
20
-28.500000581145287
10
-79.410001184642312
20
-27.000000543892384
42
-0.41421356237309503
10
-78.910001184642312
20
-26.500000543892384
10
-75.410001117587086
20
-26.500000543892384
42
-0.41421356237309503
10
-74.910001117587086
20
-27.000000543892384
10
-74.910001117587086
20
-28.500000581145287
42
-0.41421356237309503
10
-75.410001117587086
20
-29.000000581145287
0
LWPOLYLINE
5
119
100
AcDbEntity
8
0
100
AcDbPolyline
90
8
70
1
43
0.0
10
-78.910001184642312
20
-19.000000581145287
10
-75.410001117587086
20
-19.000000581145287
42
0.41421356237309503
10
-74.910001117587086
20
-18.500000581145287
10
-74.910001117587086
20
-17.000000543892384
42
0.41421356237309503
10
-75.410001117587086
20
-16.500000543892384
10
-78.910001184642312
20
-16.500000543892384
42
0.41421356237309503
10
-79.410001184642312
20
-17.000000543892384
10
-79.410001184642312
20
-18.500000581145287
42
0.41421356237309503
0
ENDSEC
0
SECTION
2
OBJECTS
0
DICTIONARY
5
C
100
AcDbDictionary
3
ACAD_GROUP
350
D
3
ACAD_MLINESTYLE
350
17
0
DICTIONARY
5
D
100
AcDbDictionary
0
DICTIONARY
5
1A
330
C
100
AcDbDictionary
0
DICTIONARY
5
17
100
AcDbDictionary
0
ENDSEC
0
EOF
