0
SECTION
2
HEADER
9
$INSUNITS
70
4
9
$ACADVER
1
AC1014
9
$HANDSEED
5
FFFF
0
ENDSEC
0
SECTION
2
TABLES
0
TABLE
2
VPORT
5
8
100
AcDbSymbolTable
0
ENDTAB
0
TABLE
2
LTYPE
5
5
100
AcDbSymbolTable
0
LTYPE
5
14
100
AcDbSymbolTableRecord
100
AcDbLinetypeTableRecord
2
BYBLOCK
70
0
0
LTYPE
5
15
100
AcDbSymbolTableRecord
100
AcDbLinetypeTableRecord
2
BYLAYER
70
0
0
ENDTAB
0
TABLE
2
LAYER
5
2
100
AcDbSymbolTable
70
2
0
LAYER
5
50
100
AcDbSymbolTableRecord
100
AcDbLayerTableRecord
2
0
70
0
6
CONTINUOUS
0
ENDTAB
0
TABLE
2
STYLE
5
3
100
AcDbSymbolTable
70
1
0
STYLE
5
11
100
AcDbSymbolTableRecord
100
AcDbTextStyleTableRecord
2
STANDARD
70
0
0
ENDTAB
0
TABLE
2
VIEW
5
6
100
AcDbSymbolTable
70
0
0
ENDTAB
0
TABLE
2
UCS
5
7
100
AcDbSymbolTable
70
0
0
ENDTAB
0
TABLE
2
APPID
5
9
100
AcDbSymbolTable
70
2
0
APPID
5
12
100
AcDbSymbolTableRecord
100
AcDbRegAppTableRecord
2
ACAD
70
0
0
ENDTAB
0
TABLE
2
DIMSTYLE
5
A
100
AcDbSymbolTable
70
1
0
ENDTAB
0
TABLE
2
BLOCK_RECORD
5
1
100
AcDbSymbolTable
70
1
0
BLOCK_RECORD
5
1F
100
AcDbSymbolTableRecord
100
AcDbBlockTableRecord
2
*MODEL_SPACE
0
BLOCK_RECORD
5
1B
100
AcDbSymbolTableRecord
100
AcDbBlockTableRecord
2
*PAPER_SPACE
0
ENDTAB
0
ENDSEC
0
SECTION
2
BLOCKS
0
BLOCK
5
20
100
AcDbEntity
100
AcDbBlockBegin
2
*MODEL_SPACE
0
ENDBLK
5
21
100
AcDbEntity
100
AcDbBlockEnd
0
BLOCK
5
1C
100
AcDbEntity
100
AcDbBlockBegin
2
*PAPER_SPACE
0
ENDBLK
5
1D
100
AcDbEntity
100
AcDbBlockEnd
0
ENDSEC
0
SECTION
2
ENTITIES
0
LINE
5
100
100
AcDbEntity
8
0
100
AcDbLine
10
-58.489676336918599
20
-0.40044866763456111
30
4.4408920985006262e-15
11
-58.489676336918599
21
-48.382542741667159
31
8.8817841970012523e-15
0
SPLINE
5
101
100
AcDbEntity
8
0
100
AcDbSpline
70
4
71
3
72
14
73
10
74
0
42
0.000000001
43
0.0000000001
44
0.0000000001
40
5.4981297601202996
40
5.4981297601202996
40
5.4981297601202996
40
5.4981297601202996
40
5.8906575336499403
40
5.8906575336499403
40
6.28318530717958
40
6.28318530717958
40
6.6757130807092198
40
6.6757130807092198
40
7.0682408542388604
40
7.0682408542388604
40
7.0682408542388604
40
7.0682408542388604
41
0.99999999999996969
41
0.9999999999999688
41
0.99999999999996791
41
0.9999999999999688
41
0.99999999999996725
41
0.99999999999996725
41
0.99999999999996936
41
0.99999999999996714
41
0.99999999999996936
41
0.99999999999996969
10
-58.489676336918592
20
-48.382542741667187
30
-1.7763568394002505e-14
10
-58.48967633691867
20
-48.906186950175595
30
-8.8817841970012523e-15
10
-58.385623313258876
20
-49.429365108085264
30
8.8817841970012523e-15
10
-57.985081398145368
20
-50.396552874245529
30
8.8817841970012523e-15
10
-57.688749816830253
20
-50.840088061277768
30
8.8817841970012523e-15
10
-56.948592356626904
20
-51.580245521481118
30
0
10
-56.505057169593783
20
-51.876577102796134
30
0
10
-55.537869403435309
20
-52.27711901790974
30
0
10
-55.014691245524155
20
-52.381172041565861
30
0
10
-54.491047037016422
20
-52.381172041569513
30
-1.7763568394002505e-14
0
LINE
5
102
100
AcDbEntity
8
0
100
AcDbLine
10
-54.491047037016429
20
-52.381172041569506
30
-1.3322676295501878e-14
11
-0.5089529629836953
21
-52.381172041569464
31
0
0
SPLINE
5
103
100
AcDbEntity
8
0
100
AcDbSpline
70
4
71
3
72
14
73
10
74
0
42
0.000000001
43
0.0000000001
44
0.0000000001
40
5.4981297601203156
40
5.4981297601203156
40
5.4981297601203156
40
5.4981297601203156
40
5.89065753364995
40
5.89065753364995
40
6.2831853071795898
40
6.2831853071795898
40
6.6757130807092304
40
6.6757130807092304
40
7.0682408542388542
40
7.0682408542388542
40
7.0682408542388542
40
7.0682408542388542
41
1.000000000000002
41
1.0000000000000022
41
1.0000000000000011
41
1.0000000000000042
41
1.0000000000000024
41
1.0000000000000024
41
1.0000000000000047
41
1.0000000000000007
41
1.0000000000000027
41
1.000000000000002
10
-0.50895296298370218
20
-52.381172041569464
30
-1.3322676295501878e-14
10
0.014691245524123854
20
-52.381172041565748
30
-8.8817841970012523e-15
10
0.5378694034352961
20
-52.277119017909726
30
0
10
1.5050571695936372
20
-51.876577102796091
30
0
10
1.9485923566277159
20
-51.58024552148013
30
0
10
2.6887498168291697
20
-50.840088061278685
30
8.8817841970012523e-15
10
2.9850813981452213
20
-50.396552874244598
30
-8.8817841970012523e-15
10
3.3856233132587743
20
-49.429365108086152
30
8.8817841970012523e-15
10
3.4896763369148975
20
-48.906186950174977
30
8.8817841970012523e-15
10
3.4896763369184995
20
-48.382542741667265
30
8.8817841970012523e-15
0
LINE
5
104
100
AcDbEntity
8
0
100
AcDbLine
10
3.4896763369184995
20
-48.382542741667265
30
8.8817841970012523e-15
11
3.4896763369185009
21
-0.40044866763456277
31
4.4408920985006262e-15
0
SPLINE
5
105
100
AcDbEntity
8
0
100
AcDbSpline
70
4
71
3
72
14
73
10
74
0
42
0.000000001
43
0.0000000001
44
0.0000000001
40
5.4981297601202996
40
5.4981297601202996
40
5.4981297601202996
40
5.4981297601202996
40
5.8906575336499403
40
5.8906575336499403
40
6.28318530717958
40
6.28318530717958
40
6.6757130807092198
40
6.6757130807092198
40
7.0682408542388604
40
7.0682408542388604
40
7.0682408542388604
40
7.0682408542388604
41
0.99999999999999611
41
0.99999999999999478
41
0.99999999999999456
41
0.99999999999999489
41
0.99999999999999256
41
0.99999999999999456
41
0.99999999999999589
41
0.99999999999999356
41
0.99999999999999589
41
0.99999999999999645
10
3.4896763369185022
20
-0.40044866763453046
30
1.3322676295501878e-14
10
3.4896763369149379
20
0.12319554087388179
30
4.4408920985006262e-15
10
3.3856233132579341
20
0.64637369878353768
30
4.4408920985006262e-15
10
2.9850813981461006
20
1.6135614649437844
30
4.4408920985006262e-15
10
2.6887498168301023
20
2.0570966519760021
30
4.4408920985006262e-15
10
1.9485923566268588
20
2.7972541121793304
30
4.4408920985006262e-15
10
1.5050571695936461
20
3.0935856934943606
30
4.4408920985006262e-15
10
0.53786940343529299
20
3.4941276086079549
30
4.4408920985006262e-15
10
0.014691245524054555
20
3.5981806322640786
30
4.4408920985006262e-15
10
-0.50895296298368442
20
3.5981806322677352
30
1.3322676295501878e-14
0
LINE
5
106
100
AcDbEntity
8
0
100
AcDbLine
10
-0.50895296298368453
20
3.5981806322677352
30
1.3322676295501878e-14
11
-54.491047037016401
21
3.5981806322677334
31
4.4408920985006262e-15
0
SPLINE
5
107
100
AcDbEntity
8
0
100
AcDbSpline
70
4
71
3
72
14
73
10
74
0
42
0.000000001
43
0.0000000001
44
0.0000000001
40
5.4981297601203325
40
5.4981297601203325
40
5.4981297601203325
40
5.4981297601203325
40
5.89065753364995
40
5.89065753364995
40
6.2831853071795898
40
6.2831853071795898
40
6.6757130807092304
40
6.6757130807092304
40
7.0682408542388799
40
7.0682408542388799
40
7.0682408542388799
40
7.0682408542388799
41
1.0000000000000024
41
1.0000000000000013
41
1.0000000000000009
41
1.0000000000000011
41
1.0000000000000098
41
1.0000000000000098
41
1.000000000000002
41
1.0000000000000098
41
1.0000000000000022
41
1.0000000000000024
10
-54.491047037016401
20
3.5981806322677508
30
0
10
-55.014691245524851
20
3.5981806322640648
30
4.4408920985006262e-15
10
-55.537869403434435
20
3.4941276086079505
30
4.4408920985006262e-15
10
-56.50505716959465
20
3.0935856934943518
30
4.4408920985006262e-15
10
-56.948592356626861
20
2.7972541121792416
30
4.4408920985006262e-15
10
-57.68874981683021
20
2.0570966519760021
30
4.4408920985006262e-15
10
-57.985081398145226
20
1.6135614649427896
30
4.4408920985006262e-15
10
-58.385623313258819
20
0.64637369878435957
30
4.4408920985006262e-15
10
-58.489676336918606
20
0.12319554087324294
30
4.4408920985006262e-15
10
-58.489676336918549
20
-0.40044866763456066
30
4.4408920985006262e-15
0
CIRCLE
5
108
100
AcDbEntity
8
0
100
AcDbCircle
10
-1.4999999999999996
20
-47.391495704650865
30
8.8817841970012523e-15
40
4.7328443874035013
210
0
220
1.2325951644078309e-32
230
1
0
CIRCLE
5
109
100
AcDbEntity
8
0
100
AcDbCircle
10
-53.5
20
-47.391495704650865
30
8.8817841970012523e-15
40
4.7328443874035013
210
0
220
1.2325951644078309e-32
230
1
0
CIRCLE
5
110
100
AcDbEntity
8
0
100
AcDbCircle
10
-53.5
20
-1.3914957046508605
30
4.4408920985006262e-15
40
4.7328443874034987
210
0
220
0
230
1
0
CIRCLE
5
111
100
AcDbEntity
8
0
100
AcDbCircle
10
-1.4999999999999996
20
-1.3914957046508605
30
4.4408920985006262e-15
40
4.5828443874035019
210
0
220
-1.2325951644078309e-32
230
1
0
LWPOLYLINE
5
112
100
AcDbEntity
8
0
100
AcDbPolyline
90
8
70
1
43
0.0
10
-38.000000581145287
20
-48.000000715255737
10
-33.000000476837158
20
-48.000000715255737
42
0.41421356237310025
10
-32.000000476837165
20
-47.000000715255737
10
-32.000000476837165
20
-42.000000610947609
42
0.41421356237310025
10
-33.000000476837158
20
-41.000000610947609
10
-38.000000581145287
20
-41.000000610947609
42
0.41421356237310025
10
-39.000000581145287
20
-42.000000610947609
10
-39.000000581145279
20
-47.000000715255737
42
0.41421356237310025
0
LWPOLYLINE
5
113
100
AcDbEntity
8
0
100
AcDbPolyline
90
8
70
1
43
0.0
10
-13.000000208616257
20
-39.000000581145287
10
-7.0000000894069672
20
-39.000000581145287
42
0.41421356237309243
10
-6.0000000894069672
20
-38.000000581145287
10
-6.0000000894069672
20
-33.000000476837158
42
0.41421356237309048
10
-7.0000000894069654
20
-32.000000476837158
10
-13.000000208616257
20
-32.000000476837158
42
0.41421356237309176
10
-14.000000208616257
20
-33.000000476837158
10
-14.000000208616257
20
-38.000000581145287
42
0.41421356237309176
0
ENDSEC
0
SECTION
2
OBJECTS
0
DICTIONARY
5
C
100
AcDbDictionary
3
ACAD_GROUP
350
D
3
ACAD_MLINESTYLE
350
17
0
DICTIONARY
5
D
100
AcDbDictionary
0
DICTIONARY
5
1A
330
C
100
AcDbDictionary
0
DICTIONARY
5
17
100
AcDbDictionary
0
ENDSEC
0
EOF
