0
SECTION
2
HEADER
9
$INSUNITS
70
4
9
$ACADVER
1
AC1014
9
$HANDSEED
5
FFFF
0
ENDSEC
0
SECTION
2
TABLES
0
TABLE
2
VPORT
5
8
100
AcDbSymbolTable
0
ENDTAB
0
TABLE
2
LTYPE
5
5
100
AcDbSymbolTable
0
LTYPE
5
14
100
AcDbSymbolTableRecord
100
AcDbLinetypeTableRecord
2
BYBLOCK
70
0
0
LTYPE
5
15
100
AcDbSymbolTableRecord
100
AcDbLinetypeTableRecord
2
BYLAYER
70
0
0
ENDTAB
0
TABLE
2
LAYER
5
2
100
AcDbSymbolTable
70
2
0
LAYER
5
50
100
AcDbSymbolTableRecord
100
AcDbLayerTableRecord
2
0
70
0
6
CONTINUOUS
0
ENDTAB
0
TABLE
2
STYLE
5
3
100
AcDbSymbolTable
70
1
0
STYLE
5
11
100
AcDbSymbolTableRecord
100
AcDbTextStyleTableRecord
2
STANDARD
70
0
0
ENDTAB
0
TABLE
2
VIEW
5
6
100
AcDbSymbolTable
70
0
0
ENDTAB
0
TABLE
2
UCS
5
7
100
AcDbSymbolTable
70
0
0
ENDTAB
0
TABLE
2
APPID
5
9
100
AcDbSymbolTable
70
2
0
APPID
5
12
100
AcDbSymbolTableRecord
100
AcDbRegAppTableRecord
2
ACAD
70
0
0
ENDTAB
0
TABLE
2
DIMSTYLE
5
A
100
AcDbSymbolTable
70
1
0
ENDTAB
0
TABLE
2
BLOCK_RECORD
5
1
100
AcDbSymbolTable
70
1
0
BLOCK_RECORD
5
1F
100
AcDbSymbolTableRecord
100
AcDbBlockTableRecord
2
*MODEL_SPACE
0
BLOCK_RECORD
5
1B
100
AcDbSymbolTableRecord
100
AcDbBlockTableRecord
2
*PAPER_SPACE
0
ENDTAB
0
ENDSEC
0
SECTION
2
BLOCKS
0
BLOCK
5
20
100
AcDbEntity
100
AcDbBlockBegin
2
*MODEL_SPACE
0
ENDBLK
5
21
100
AcDbEntity
100
AcDbBlockEnd
0
BLOCK
5
1C
100
AcDbEntity
100
AcDbBlockBegin
2
*PAPER_SPACE
0
ENDBLK
5
1D
100
AcDbEntity
100
AcDbBlockEnd
0
ENDSEC
0
SECTION
2
ENTITIES
0
LWPOLYLINE
5
100
100
AcDbEntity
8
0
100
AcDbPolyline
90
26
70
1
43
0.0
10
-1.887816136139846
20
4.8217814367995482
10
5.219470127064155
20
4.8217814367995473
42
-0.1033532981179326
10
8.0121838638601517
20
5.4052867353112477
10
9.0121838638601517
20
5.4052867353112504
42
0.41421356237309759
10
10.037329933790753
20
6.4304328052417503
10
10.037329933790652
20
36.43043280524175
42
0.41421356237309975
10
9.0121838638601517
20
37.45557887517225
10
0.012183863860152345
20
37.455578875172257
42
-0.41421356237309498
10
-6.9626700662093484
20
44.430432805241757
10
-6.9626700662093484
20
45.430432805241765
42
0.41421356237308932
10
-7.9878161361398492
20
46.45557887517235
10
-30.696467504581946
20
46.45557887517235
10
-30.696467504581957
20
41.630432805241746
42
-0.41421356237309503
10
-34.187816136139851
20
38.139084173683855
10
-40.976583873095251
20
38.139084173683848
42
-0.11206726149199665
10
-43.987816136139855
20
37.45557887517225
10
-44.987816136139848
20
37.45557887517225
42
0.41421356237309381
10
-46.012962206070455
20
36.43043280524175
10
-46.012962206070341
20
6.4304328052417485
42
0.4142135623730982
10
-44.987816136139855
20
5.4052867353112477
10
-35.987816136139848
20
5.4052867353112433
42
-0.41421356237309614
10
-29.012962206070352
20
-1.5695671947582523
10
-29.012962206070348
20
-2.5695671947582532
42
0.41421356237308871
10
-27.987816136139855
20
-3.5947132646888491
10
-5.3791647676976488
20
-3.5947132646888491
10
-5.3791647676976435
20
1.3304328052417476
42
-0.41421356237309415
0
LWPOLYLINE
5
101
100
AcDbEntity
8
0
100
AcDbPolyline
90
7
70
1
43
0.0
10
1.454324567222951
20
-2.5695671947582532
10
1.4543245672229559
20
-1.5695671947582557
42
-0.26015218903070803
10
4.5690912290191488
20
4.0117078981210508
10
-1.8878161361398458
20
4.011707898121049
42
0.41421356237309415
10
-4.5690912290191488
20
1.330432805241748
10
-4.5690912290191488
20
-4.0117078981210508
10
0.012183863860151157
20
-4.0117078981210508
42
0.41421356237309387
0
CIRCLE
5
102
100
AcDbEntity
8
0
100
AcDbCircle
10
-1.9878161361398483
20
1.4304328052417459
30
0
40
1.749999999999998
210
0
220
0
230
1
0
LWPOLYLINE
5
103
100
AcDbEntity
8
0
100
AcDbPolyline
90
7
70
1
43
0.0
10
-37.429956839502651
20
45.43043280524175
10
-37.429956839502502
20
44.430432805241757
42
-0.25258709339094559
10
-40.387657540928558
20
38.94915771236245
10
-34.187816136139844
20
38.94915771236245
42
0.41421356237309165
10
-31.506541043260547
20
41.630432805241746
10
-31.506541043260551
20
46.872573508604553
10
-35.987816136139848
20
46.872573508604546
42
0.41421356237310042
0
CIRCLE
5
104
100
AcDbEntity
8
0
100
AcDbCircle
10
-33.987816136139848
20
41.43043280524175
30
0
40
1.749999999999998
210
0
220
0
230
1
0
ARC
5
105
100
AcDbEntity
8
0
100
AcDbCircle
10
-44.987816136139855
20
6.430432805241737
30
0
40
0.69214070336268918
210
0
220
0
230
1
100
AcDbArc
50
180
51
270
0
LINE
5
106
100
AcDbEntity
8
0
100
AcDbLine
10
-35.987816136139834
20
5.7382921018790451
30
0
11
-44.987816136139855
21
5.7382921018790425
31
0
0
ARC
5
107
100
AcDbEntity
8
0
100
AcDbCircle
10
-35.987816136139834
20
-1.569567194758239
30
0
40
7.3078592966372824
210
0
220
-0
230
1
100
AcDbArc
50
0
51
90
0
LINE
5
108
100
AcDbEntity
8
0
100
AcDbLine
10
-28.679956839502537
20
-2.5695671947582595
30
0
11
-28.679956839502552
21
-1.5695671947581742
31
0
0
ARC
5
109
100
AcDbEntity
8
0
100
AcDbCircle
10
-27.987816136139841
20
-2.5695671947582444
30
0
40
0.69214070336269806
210
0
220
0
230
1
100
AcDbArc
50
180
51
270
0
LINE
5
110
100
AcDbEntity
8
0
100
AcDbLine
10
-3.8190912290191488
20
-3.2617078981210508
30
0
11
-27.987816136139841
21
-3.2617078981209429
31
0
0
ARC
5
111
100
AcDbEntity
8
0
100
AcDbCircle
10
8.0121838638600895
20
-1.5695671947569823
30
0
40
7.3078592966363418
210
0
220
0
230
1
100
AcDbArc
50
90.000000000000128
51
138.61566561746184
0
LINE
5
112
100
AcDbEntity
8
0
100
AcDbLine
10
9.0121838638601588
20
5.7382921018793622
30
0
11
8.0121838638600735
21
5.7382921018793596
31
0
0
ARC
5
113
100
AcDbEntity
8
0
100
AcDbCircle
10
9.012183863860157
20
6.4304328052417459
30
0
40
0.69214070336238387
210
0
220
0
230
1
100
AcDbArc
50
-89.999999999999844
51
0
0
LINE
5
114
100
AcDbEntity
8
0
100
AcDbLine
10
9.7043245672225389
20
36.430432805241757
30
0
11
9.7043245672225407
21
6.4304328052417494
31
0
0
ARC
5
115
100
AcDbEntity
8
0
100
AcDbCircle
10
9.0121838638601606
20
36.430432805241757
30
0
40
0.69214070336237832
210
0
220
0
230
1
100
AcDbArc
50
0
51
90
0
LINE
5
116
100
AcDbEntity
8
0
100
AcDbLine
10
0.012183863860149729
20
37.122573508604148
30
0
11
9.0121838638601606
21
37.122573508604134
31
0
0
ARC
5
117
100
AcDbEntity
8
0
100
AcDbCircle
10
0.012183863860153465
20
44.430432805241757
30
0
40
7.307859296637611
210
0
220
0
230
1
100
AcDbArc
50
180
51
269.99999999999994
0
LINE
5
118
100
AcDbEntity
8
0
100
AcDbLine
10
-7.2956754327774576
20
45.43043280524175
30
0
11
-7.2956754327774576
21
44.430432805241757
31
0
0
ARC
5
119
100
AcDbEntity
8
0
100
AcDbCircle
10
-7.9878161361398607
20
45.43043280524175
30
0
40
0.69214070336240274
210
0
220
-0
230
1
100
AcDbArc
50
0
51
89.999999999999858
0
LINE
5
120
100
AcDbEntity
8
0
100
AcDbLine
10
-29.946467504581964
20
46.122573508604233
30
0
11
-7.987816136139859
21
46.122573508604162
31
0
0
LINE
5
121
100
AcDbEntity
8
0
100
AcDbLine
10
-44.987816136139848
20
37.122573508604454
30
0
11
-43.987816136139855
21
37.122573508604454
31
0
0
ARC
5
122
100
AcDbEntity
8
0
100
AcDbCircle
10
-44.987816136139848
20
36.430432805241743
30
0
40
0.69214070336270694
210
0
220
-0
230
1
100
AcDbArc
50
90
51
180
0
LINE
5
123
100
AcDbEntity
8
0
100
AcDbLine
10
-45.679956839502545
20
6.4304328052417379
30
0
11
-45.679956839502566
21
36.430432805241743
31
0
0
ARC
5
124
100
AcDbEntity
8
0
100
AcDbCircle
10
8.0121838638600487
20
-1.5695671947581635
30
0
40
7.3078592966370923
210
0
220
0
230
1
100
AcDbArc
50
138.61566561745468
51
180
0
LINE
5
125
100
AcDbEntity
8
0
100
AcDbLine
10
0.70432456722295533
20
-1.569567194758263
30
0
11
0.70432456722295089
21
-2.5695671947582532
31
0
0
ARC
5
126
100
AcDbEntity
8
0
100
AcDbCircle
10
0.012183863860149163
20
-2.5695671947582492
30
0
40
0.69214070336280131
210
0
220
0
230
1
100
AcDbArc
50
270.00000000000011
51
360
0
LINE
5
127
100
AcDbEntity
8
0
100
AcDbLine
10
0.012183863860150119
20
-3.2617078981210508
30
0
11
-3.8190912290191488
21
-3.2617078981210508
31
0
0
LINE
5
128
100
AcDbEntity
8
0
100
AcDbLine
10
-36.679956839502573
20
44.430432805242852
30
0
11
-36.679956839502715
21
45.430432805241665
31
0
0
ARC
5
129
100
AcDbEntity
8
0
100
AcDbCircle
10
-35.987816136139863
20
45.430432805241765
30
0
40
0.69214070336285793
210
0
220
-0
230
1
100
AcDbArc
50
90
51
180
0
LINE
5
130
100
AcDbEntity
8
0
100
AcDbLine
10
-35.987816136139863
20
46.122573508604617
30
0
11
-30.000000447034836
21
46.122573508604233
31
0
0
ARC
5
131
100
AcDbEntity
8
0
100
AcDbCircle
10
-43.987816136139898
20
44.430432805241786
30
0
40
7.3078592966373312
210
0
220
0
230
1
100
AcDbArc
50
-89.999999999999702
51
0
0
LINE
5
132
100
AcDbEntity
8
0
100
AcDbLine
10
-29.946467504581964
20
45.872573508604226
30
0
11
-7.9878161361398581
21
45.872573508604155
31
0
0
ARC
5
133
100
AcDbEntity
8
0
100
AcDbCircle
10
-7.9878161361398607
20
45.43043280524175
30
0
40
0.44214070336240252
210
0
220
0
230
1
100
AcDbArc
50
0
51
89.999999999999659
0
LINE
5
134
100
AcDbEntity
8
0
100
AcDbLine
10
-7.5456754327774576
20
45.43043280524175
30
0
11
-7.5456754327774576
21
44.430432805241757
31
0
0
ARC
5
135
100
AcDbEntity
8
0
100
AcDbCircle
10
0.012183863860153465
20
44.430432805241757
30
0
40
7.557859296637611
210
0
220
0
230
1
100
AcDbArc
50
180
51
269.99999999999994
0
LINE
5
136
100
AcDbEntity
8
0
100
AcDbLine
10
0.012183863860149647
20
36.872573508604148
30
0
11
9.0121838638601588
21
36.872573508604141
31
0
0
ARC
5
137
100
AcDbEntity
8
0
100
AcDbCircle
10
9.0121838638601606
20
36.430432805241757
30
0
40
0.4421407033623781
210
0
220
0
230
1
100
AcDbArc
50
0
51
90.000000000000242
0
LINE
5
138
100
AcDbEntity
8
0
100
AcDbLine
10
9.4543245672225389
20
36.430432805241757
30
0
11
9.4543245672225407
21
6.4304328052417503
31
0
0
ARC
5
139
100
AcDbEntity
8
0
100
AcDbCircle
10
9.012183863860157
20
6.4304328052417459
30
0
40
0.44214070336238365
210
0
220
0
230
1
100
AcDbArc
50
-89.999999999999801
51
0
0
LINE
5
140
100
AcDbEntity
8
0
100
AcDbLine
10
9.0121838638601588
20
5.9882921018793622
30
0
11
8.0121838638600735
21
5.9882921018793596
31
0
0
ARC
5
141
100
AcDbEntity
8
0
100
AcDbCircle
10
8.0121838638600895
20
-1.5695671947569823
30
0
40
7.5578592966363427
210
0
220
0
230
1
100
AcDbArc
50
90.000000000000128
51
138.61566561746184
0
ARC
5
142
100
AcDbEntity
8
0
100
AcDbCircle
10
8.0121838638600487
20
-1.5695671947581635
30
0
40
7.5578592966370923
210
0
220
0
230
1
100
AcDbArc
50
138.61566561745491
51
180
0
LINE
5
143
100
AcDbEntity
8
0
100
AcDbLine
10
0.45432456722295511
20
-1.5695671947582668
30
0
11
0.45432456722295089
21
-2.5695671947582523
31
0
0
ARC
5
144
100
AcDbEntity
8
0
100
AcDbCircle
10
0.012183863860149163
20
-2.5695671947582492
30
0
40
0.44214070336280165
210
0
220
0
230
1
100
AcDbArc
50
270.00000000000011
51
360
0
LINE
5
145
100
AcDbEntity
8
0
100
AcDbLine
10
0.012183863860149774
20
-3.0117078981210508
30
0
11
-3.8190912290191488
21
-3.0117078981210503
31
0
0
LINE
5
146
100
AcDbEntity
8
0
100
AcDbLine
10
-3.8190912290191488
20
-3.0117078981210503
30
0
11
-27.987816136139841
21
-3.0117078981209429
31
0
0
ARC
5
147
100
AcDbEntity
8
0
100
AcDbCircle
10
-27.987816136139841
20
-2.5695671947582444
30
0
40
0.44214070336269895
210
0
220
0
230
1
100
AcDbArc
50
180
51
270
0
LINE
5
148
100
AcDbEntity
8
0
100
AcDbLine
10
-28.429956839502537
20
-2.5695671947582537
30
0
11
-28.429956839502552
21
-1.5695671947581706
31
0
0
ARC
5
149
100
AcDbEntity
8
0
100
AcDbCircle
10
-35.987816136139834
20
-1.569567194758239
30
0
40
7.5578592966372815
210
0
220
-0
230
1
100
AcDbArc
50
0
51
89.999999999999943
0
LINE
5
150
100
AcDbEntity
8
0
100
AcDbLine
10
-35.987816136139827
20
5.9882921018790434
30
0
11
-44.987816136139855
21
5.9882921018790425
31
0
0
ARC
5
151
100
AcDbEntity
8
0
100
AcDbCircle
10
-44.987816136139855
20
6.430432805241737
30
0
40
0.44214070336268563
210
0
220
0
230
1
100
AcDbArc
50
180
51
270
0
LINE
5
152
100
AcDbEntity
8
0
100
AcDbLine
10
-45.429956839502537
20
6.4304328052417379
30
0
11
-45.429956839502559
21
36.430432805241743
31
0
0
ARC
5
153
100
AcDbEntity
8
0
100
AcDbCircle
10
-44.987816136139848
20
36.430432805241743
30
0
40
0.44214070336270783
210
0
220
-0
230
1
100
AcDbArc
50
90
51
180
0
LINE
5
154
100
AcDbEntity
8
0
100
AcDbLine
10
-44.987816136139848
20
36.872573508604454
30
0
11
-43.987816136139855
21
36.872573508604454
31
0
0
ARC
5
155
100
AcDbEntity
8
0
100
AcDbCircle
10
-43.987816136139898
20
44.430432805241786
30
0
40
7.5578592966373304
210
0
220
0
230
1
100
AcDbArc
50
-89.999999999999702
51
0
0
LINE
5
156
100
AcDbEntity
8
0
100
AcDbLine
10
-36.429956839502566
20
44.430432805242887
30
0
11
-36.429956839502715
21
45.430432805241701
31
0
0
ARC
5
157
100
AcDbEntity
8
0
100
AcDbCircle
10
-35.987816136139863
20
45.430432805241765
30
0
40
0.44214070336285438
210
0
220
-0
230
1
100
AcDbArc
50
90
51
180
0
LINE
5
158
100
AcDbEntity
8
0
100
AcDbLine
10
-35.987816136139863
20
45.872573508604617
30
0
11
-30.000000447034854
21
45.872573508604226
31
0
0
ENDSEC
0
SECTION
2
OBJECTS
0
DICTIONARY
5
C
100
AcDbDictionary
3
ACAD_GROUP
350
D
3
ACAD_MLINESTYLE
350
17
0
DICTIONARY
5
D
100
AcDbDictionary
0
DICTIONARY
5
1A
330
C
100
AcDbDictionary
0
DICTIONARY
5
17
100
AcDbDictionary
0
ENDSEC
0
EOF
