0
SECTION
2
HEADER
9
$INSUNITS
70
4
9
$ACADVER
1
AC1014
9
$HANDSEED
5
FFFF
0
ENDSEC
0
SECTION
2
TABLES
0
TABLE
2
VPORT
5
8
100
AcDbSymbolTable
0
ENDTAB
0
TABLE
2
LTYPE
5
5
100
AcDbSymbolTable
0
LTYPE
5
14
100
AcDbSymbolTableRecord
100
AcDbLinetypeTableRecord
2
BYBLOCK
70
0
0
LTYPE
5
15
100
AcDbSymbolTableRecord
100
AcDbLinetypeTableRecord
2
BYLAYER
70
0
0
ENDTAB
0
TABLE
2
LAYER
5
2
100
AcDbSymbolTable
70
2
0
LAYER
5
50
100
AcDbSymbolTableRecord
100
AcDbLayerTableRecord
2
0
70
0
6
CONTINUOUS
0
ENDTAB
0
TABLE
2
STYLE
5
3
100
AcDbSymbolTable
70
1
0
STYLE
5
11
100
AcDbSymbolTableRecord
100
AcDbTextStyleTableRecord
2
STANDARD
70
0
0
ENDTAB
0
TABLE
2
VIEW
5
6
100
AcDbSymbolTable
70
0
0
ENDTAB
0
TABLE
2
UCS
5
7
100
AcDbSymbolTable
70
0
0
ENDTAB
0
TABLE
2
APPID
5
9
100
AcDbSymbolTable
70
2
0
APPID
5
12
100
AcDbSymbolTableRecord
100
AcDbRegAppTableRecord
2
ACAD
70
0
0
ENDTAB
0
TABLE
2
DIMSTYLE
5
A
100
AcDbSymbolTable
70
1
0
ENDTAB
0
TABLE
2
BLOCK_RECORD
5
1
100
AcDbSymbolTable
70
1
0
BLOCK_RECORD
5
1F
100
AcDbSymbolTableRecord
100
AcDbBlockTableRecord
2
*MODEL_SPACE
0
BLOCK_RECORD
5
1B
100
AcDbSymbolTableRecord
100
AcDbBlockTableRecord
2
*PAPER_SPACE
0
ENDTAB
0
ENDSEC
0
SECTION
2
BLOCKS
0
BLOCK
5
20
100
AcDbEntity
100
AcDbBlockBegin
2
*MODEL_SPACE
0
ENDBLK
5
21
100
AcDbEntity
100
AcDbBlockEnd
0
BLOCK
5
1C
100
AcDbEntity
100
AcDbBlockBegin
2
*PAPER_SPACE
0
ENDBLK
5
1D
100
AcDbEntity
100
AcDbBlockEnd
0
ENDSEC
0
SECTION
2
ENTITIES
0
LWPOLYLINE
5
100
100
AcDbEntity
8
0
100
AcDbPolyline
90
22
70
1
43
0.0
10
6.0307994285789848
20
-46.68127116494297
42
-0.41421356237309503
10
4.9096505015432541
20
-45.560122237907237
10
4.909650501543271
20
-36.560122237907237
42
0.41421356237309548
10
-1.7692005714210091
20
-29.881271164942937
10
-2.7692005714210142
20
-29.881271164942937
42
-0.41421356237309503
10
-3.890349498456712
20
-28.76012223790724
10
-3.890349498456712
20
-6.551470869465037
10
1.7307994285789872
20
-6.5514708694650858
42
0.41421356237309476
10
5.2221480601367878
20
-3.0601222379072368
10
5.2221480601368642
20
9.2164457764417875
42
-0.2041769530520888
10
6.0307994285789857
20
9.5610266891284645
10
76.430799428578979
20
9.5610266891284645
42
-0.41421356237309503
10
77.551948355614684
20
8.4398777620927667
10
77.551948355614726
20
-0.56012223790723681
42
0.41421356237309392
10
84.23079942857899
20
-7.2389733108715371
10
85.23079942857899
20
-7.2389733108715371
42
-0.41421356237309503
10
86.351948355614695
20
-8.360122237907234
10
86.351948355614667
20
-30.568773606349431
10
80.73079942857899
20
-30.568773606349371
42
0.4142135623730947
10
77.239450797021078
20
-34.060122237907237
10
77.239450797021064
20
-46.336690252256318
42
-0.20417695305207237
10
76.430799428578979
20
-46.681271164942942
0
LWPOLYLINE
5
101
100
AcDbEntity
8
0
100
AcDbPolyline
90
7
70
1
43
0.0
10
-2.7692005714210142
20
1.1321167910337593
10
-1.7692005714210091
20
1.1321167910337593
42
0.32952516566879253
10
4.2614396003620838
20
5.5907624096903685
10
4.2614396003620927
20
-3.0601222379072368
42
-0.41421356237309503
10
1.7307994285789874
20
-5.5907624096903419
10
-4.2614396003621122
20
-5.5907624096903419
10
-4.2614396003620145
20
-0.36012223790724152
42
-0.41421356237309509
0
CIRCLE
5
102
100
AcDbEntity
8
0
100
AcDbCircle
10
1.2307994285789892
20
-2.5601222379072386
30
0
40
2
210
-0
220
0
230
1
0
SPLINE
5
103
100
AcDbEntity
8
0
100
AcDbSpline
70
0
71
3
72
11
73
7
74
0
42
0.000000001
43
0.0000000001
44
0.0000000001
40
0
40
0
40
0
40
0
40
0.00092840505404724702
40
0.00092840505404724702
40
0.00092840505404724702
40
0.0018568101080944999
40
0.0018568101080944999
40
0.0018568101080944999
40
0.0018568101080944999
10
4.4005974408151873
20
7.4398777620927614
30
0
10
4.400597440547779
20
7.1302726298560604
30
0
10
4.3891204391427143
20
6.820772504819459
30
0
10
4.3660496359839476
20
6.5123984395089618
30
0
10
4.3429788328251808
20
6.2040243741984646
30
0
10
4.3083692731618841
20
5.8968720006266651
30
0
10
4.2614396003620838
20
5.5907624096903685
30
0
0
LINE
5
104
100
AcDbEntity
8
0
100
AcDbLine
10
4.2614396003620838
20
5.5907624096903676
30
0
11
4.2614396003620838
21
-3.0601222379072368
31
0
0
LINE
5
105
100
AcDbEntity
8
0
100
AcDbLine
10
4.2614396003620838
20
-3.0601222379072368
30
0
11
4.5613939089090056
21
-3.0601222379072368
31
0
0
LINE
5
106
100
AcDbEntity
8
0
100
AcDbLine
10
4.5613939089090056
20
-3.0601222379072368
30
0
11
4.5613939089089852
21
9.3501282885234716
31
0
0
SPLINE
5
107
100
AcDbEntity
8
0
100
AcDbSpline
70
0
71
3
72
26
73
22
74
0
42
0.000000001
43
0.0000000001
44
0.0000000001
40
0
40
0
40
0
40
0
40
0.00012999154857077399
40
0.00012999154857077399
40
0.00012999154857077399
40
0.00018422901321612801
40
0.00018422901321612801
40
0.00018422901321612801
40
0.00025998309714154902
40
0.00025998309714154902
40
0.00025998309714154902
40
0.00043347190942803201
40
0.00043347190942803201
40
0.00043347190942803201
40
0.00051996619428309001
40
0.00051996619428309001
40
0.00051996619428309001
40
0.00073033583446517299
40
0.00073033583446517299
40
0.00073033583446517299
40
0.00103993238856617
40
0.00103993238856617
40
0.00103993238856617
40
0.00103993238856617
10
4.5613939089089985
20
9.3501282885275661
30
0
10
4.5606340865385988
20
9.3506499968417689
30
0
10
4.5487115994438057
20
9.3220928541014647
30
0
10
4.5385490365972672
20
9.2948456513495614
30
0
10
4.5343088252207933
20
9.2834770722981652
30
0
10
4.5296477777942714
20
9.2705475212211663
30
0
10
4.5247601356958125
20
9.2562337775972736
30
0
10
4.5179335103705878
20
9.2362416090314703
30
0
10
4.5106991266971077
20
9.2137433201015639
30
0
10
4.5033956122683785
20
9.18930556049804
30
0
10
4.4866694111436347
20
9.1333392327587681
30
0
10
4.4731787937884784
20
9.079953819703368
30
0
10
4.4617597375260978
20
9.027641141982965
30
0
10
4.4560666724107314
20
9.0015602230542768
30
0
10
4.4507847517452239
20
8.9753199835239705
30
0
10
4.4457019801505329
20
8.9476808765076754
30
0
10
4.4333397664702314
20
8.8804576026495674
30
0
10
4.4234820775949037
20
8.8114088645707689
30
0
10
4.416296769302849
20
8.7429068833951096
30
0
10
4.4057223029233441
20
8.6420939652253637
30
0
10
4.4005974408116657
20
8.5416425725405709
30
0
10
4.4005974408151962
20
8.4398777620927667
30
0
0
LINE
5
108
100
AcDbEntity
8
0
100
AcDbLine
10
4.4005974408151962
20
8.4398777620927667
30
0
11
4.4005974408151873
21
7.4398777620927614
31
0
0
LWPOLYLINE
5
109
100
AcDbEntity
8
0
100
AcDbPolyline
90
4
70
1
43
0.0
10
4.5613939089090056
20
-3.0601222379072368
10
4.2614396003621078
20
-3.0601222379072368
42
-0.41421356237309509
10
1.7307994285789867
20
-5.5907624096903579
10
1.7307994285789874
20
-5.8907167182372611
42
0.41421356237309503
0
LINE
5
110
100
AcDbEntity
8
0
100
AcDbLine
10
-4.2614396003621122
20
-5.5907624096903419
30
0
11
1.7307994285789874
21
-5.5907624096903419
31
0
0
LINE
5
111
100
AcDbEntity
8
0
100
AcDbLine
10
1.7307994285789874
20
-5.5907624096903419
30
0
11
1.7307994285789874
21
-5.8907167182372611
31
0
0
LINE
5
112
100
AcDbEntity
8
0
100
AcDbLine
10
1.7307994285789874
20
-5.5907624096903419
30
0
11
-4.2614396003621122
21
-5.5907624096903419
31
0
0
ELLIPSE
5
113
100
AcDbEntity
8
0
100
AcDbEllipse
10
-4.2509665614051082
20
-5.5907624096902353
30
0
11
-2.2542203734482046e-14
21
-0.30000000000010268
31
0.0
40
0.034910129856462357
41
4.7123889803850485
42
6.265732014659612
0
LINE
5
114
100
AcDbEntity
8
0
100
AcDbLine
10
-4.2511493411376424
20
-5.890716718237254
30
0
11
1.7307994285789874
21
-5.8907167182372611
31
0
0
LWPOLYLINE
5
115
100
AcDbEntity
8
0
100
AcDbPolyline
90
4
70
1
43
0.0
10
80.73079942857899
20
-31.529482066124139
10
80.73079942857899
20
-31.229527757577227
42
0.41421356237309187
10
77.900204948248941
20
-34.060122237907237
10
78.200159256795899
20
-34.060122237907237
42
-0.41421356237309148
0
ELLIPSE
5
116
100
AcDbEntity
8
0
100
AcDbEllipse
10
86.712565418563088
20
-31.529482066123833
30
0
11
-2.2418440857382446e-14
21
0.29999999999969723
31
0.0
40
0.03491012985650388
41
4.7123889803836807
42
6.2657320146600668
0
LINE
5
117
100
AcDbEntity
8
0
100
AcDbLine
10
86.712748198295571
20
-31.229527757577216
30
0
11
80.73079942857899
21
-31.229527757577237
31
0
0
LINE
5
118
100
AcDbEntity
8
0
100
AcDbLine
10
80.73079942857899
20
-31.229527757577237
30
0
11
80.73079942857899
21
-31.529482066124139
31
0
0
LINE
5
119
100
AcDbEntity
8
0
100
AcDbLine
10
80.73079942857899
20
-31.529482066124139
30
0
11
86.723038457520033
21
-31.529482066124139
31
0
0
LINE
5
120
100
AcDbEntity
8
0
100
AcDbLine
10
78.061001416342776
20
-45.560122237907237
30
0
11
78.061001416342776
21
-44.560122237907237
31
0
0
SPLINE
5
121
100
AcDbEntity
8
0
100
AcDbSpline
70
0
71
3
72
11
73
7
74
0
42
0.000000001
43
0.0000000001
44
0.0000000001
40
0
40
0
40
0
40
0
40
0.00092840505404722805
40
0.00092840505404722805
40
0.00092840505404722805
40
0.00185681010809446
40
0.00185681010809446
40
0.00185681010809446
40
0.00185681010809446
10
78.061001416342776
20
-44.56012223790723
30
0
10
78.061001416610196
20
-44.250517105670532
30
0
10
78.072478418016246
20
-43.941016980634132
30
0
10
78.095549221174537
20
-43.632642915323537
30
0
10
78.118620024332813
20
-43.324268850012942
30
0
10
78.153229583996065
20
-43.01711647644116
30
0
10
78.200159256795914
20
-42.711006885504837
30
0
0
LINE
5
122
100
AcDbEntity
8
0
100
AcDbLine
10
78.200159256795928
20
-42.711006885504837
30
0
11
78.200159256795899
21
-34.060122237907237
31
0
0
LINE
5
123
100
AcDbEntity
8
0
100
AcDbLine
10
77.900204948248984
20
-34.060122237907237
30
0
11
78.200159256795899
21
-34.060122237907237
31
0
0
LINE
5
124
100
AcDbEntity
8
0
100
AcDbLine
10
77.900204948248984
20
-34.060122237907237
30
0
11
77.900204948248884
21
-46.470372764337931
31
0
0
SPLINE
5
125
100
AcDbEntity
8
0
100
AcDbSpline
70
0
71
3
72
17
73
13
74
0
42
0.000000001
43
0.0000000001
44
0.0000000001
40
0
40
0
40
0
40
0
40
0.000510891592787211
40
0.000510891592787211
40
0.000510891592787211
40
0.00076633738918081395
40
0.00076633738918081395
40
0.00076633738918081395
40
0.00089406028737761597
40
0.00089406028737761597
40
0.00089406028737761597
40
0.00102178318557442
40
0.00102178318557442
40
0.00102178318557442
40
0.00102178318557442
10
78.061001416342776
20
-45.560122237907237
30
0
10
78.061001416348688
20
-45.731035836587637
30
0
10
78.046451858844407
20
-45.901771331164738
30
0
10
78.015895032026947
20
-46.067924236949942
30
0
10
78.00061661861821
20
-46.15100068984254
30
0
10
77.981000242512295
20
-46.233501085600437
30
0
10
77.958203266069077
20
-46.309550030806037
30
0
10
77.94680477784749
20
-46.347574503408843
30
0
10
77.934418971016086
20
-46.384435750825645
30
0
10
77.923049741348052
20
-46.415090291471238
30
0
10
77.911680511680018
20
-46.445744832116837
30
0
10
77.900964770619339
20
-46.47089447265634
30
0
10
77.900204948248984
20
-46.470372764337931
30
0
0
LWPOLYLINE
5
126
100
AcDbEntity
8
0
100
AcDbPolyline
90
7
70
1
43
0.0
10
78.200159256795899
20
-42.711006885504837
10
78.200159256795885
20
-34.060122237907237
42
-0.41421356237309503
10
80.73079942857899
20
-31.529482066124139
10
86.72303845752009
20
-31.529482066124139
10
86.723038457519991
20
-36.76012223790724
42
-0.41421356237309503
10
85.23079942857899
20
-38.25236126684824
10
84.23079942857899
20
-38.252361266848268
42
0.32952516566879203
0
CIRCLE
5
127
100
AcDbEntity
8
0
100
AcDbCircle
10
81.23079942857899
20
-34.560122237907237
30
0
40
2
210
-0
220
0
230
1
0
CIRCLE
5
128
100
AcDbEntity
8
0
100
AcDbCircle
10
-1.2307994285789892
20
-2.5601222379072386
30
-5.684613308758998e-16
40
2
210
0
220
2.2204460492503131e-16
230
-1
0
LWPOLYLINE
5
129
100
AcDbEntity
8
0
100
AcDbPolyline
90
7
70
1
43
0.0
10
-2.7692005714210142
20
1.1321167910337593
10
-1.7692005714210102
20
1.1321167910338359
42
0.32952516566879281
10
4.2614396003620838
20
5.5907624096903685
10
4.2614396003620927
20
-3.0601222379072368
42
-0.41421356237309503
10
1.7307994285789874
20
-5.5907624096903419
10
-4.2614396003621122
20
-5.5907624096903419
10
-4.2614396003620145
20
-0.36012223790724152
42
-0.41421356237309509
0
CIRCLE
5
130
100
AcDbEntity
8
0
100
AcDbCircle
10
-81.23079942857899
20
-34.560122237907237
30
1.2078955085243503e-15
40
2
210
0
220
2.2204460492503131e-16
230
-1
0
LWPOLYLINE
5
131
100
AcDbEntity
8
0
100
AcDbPolyline
90
7
70
1
43
0.0
10
78.200159256795899
20
-42.711006885504837
10
78.200159256795885
20
-34.060122237907237
42
-0.41421356237309503
10
80.73079942857899
20
-31.529482066124139
10
86.72303845752009
20
-31.529482066124139
10
86.723038457519991
20
-36.76012223790724
42
-0.41421356237309503
10
85.23079942857899
20
-38.25236126684824
10
84.23079942857899
20
-38.25236126684829
42
0.32952516566879292
0
LINE
5
132
100
AcDbEntity
8
0
100
AcDbLine
10
-4.2614396003621122
20
-5.5907624096903419
30
0
11
1.7307994285789874
21
-5.5907624096903419
31
0
0
ARC
5
133
100
AcDbEntity
8
0
100
AcDbCircle
10
1.7307994285789874
20
-3.0601222379072368
30
0
40
2.5306401717830971
210
0
220
-1.1102230246251565e-16
230
1
100
AcDbArc
50
-90
51
0
0
LINE
5
134
100
AcDbEntity
8
0
100
AcDbLine
10
4.2614396003620838
20
-3.0601222379072368
30
0
11
4.2614396003620838
21
5.5907624096903685
31
0
0
LINE
5
135
100
AcDbEntity
8
0
100
AcDbLine
10
78.200159256795899
20
-34.060122237907237
30
-8.8817841970012523e-15
11
78.200159256795899
21
-42.711006885504837
31
-8.8817841970012523e-15
0
ARC
5
136
100
AcDbEntity
8
0
100
AcDbCircle
10
80.73079942857899
20
-34.060122237907237
30
1.9984014443252818e-14
40
2.5306401717830962
210
-2.2026222956675522e-16
220
4.9007574631011408e-17
230
1
100
AcDbArc
50
90
51
180
0
LINE
5
137
100
AcDbEntity
8
0
100
AcDbLine
10
86.72303845752009
20
-31.529482066124139
30
-8.8817841970012523e-15
11
80.73079942857899
21
-31.529482066124139
31
-8.8817841970012523e-15
0
ENDSEC
0
SECTION
2
OBJECTS
0
DICTIONARY
5
C
100
AcDbDictionary
3
ACAD_GROUP
350
D
3
ACAD_MLINESTYLE
350
17
0
DICTIONARY
5
D
100
AcDbDictionary
0
DICTIONARY
5
1A
330
C
100
AcDbDictionary
0
DICTIONARY
5
17
100
AcDbDictionary
0
ENDSEC
0
EOF
