G04 EAGLE Gerber RS-274X export*
G75*
%MOIN*%
%FSLAX34Y34*%
%LPD*%
%INBottom Copper*%
%IPPOS*%
%AMOC8*
5,1,8,0,0,1.08239X$1,22.5*%
G01*
%ADD10R,0.105000X0.165000*%
%ADD11C,0.023780*%

G36*
X970Y151D02*
X970Y151D01*
X971Y151D01*
X975Y152D01*
X979Y153D01*
X980Y153D01*
X981Y153D01*
X984Y155D01*
X987Y157D01*
X988Y158D01*
X989Y159D01*
X991Y161D01*
X994Y164D01*
X994Y165D01*
X995Y166D01*
X996Y170D01*
X997Y173D01*
X998Y174D01*
X998Y175D01*
X998Y180D01*
X998Y774D01*
X1594Y774D01*
X1595Y774D01*
X1596Y774D01*
X1600Y775D01*
X1604Y775D01*
X1605Y776D01*
X1606Y776D01*
X1609Y778D01*
X1612Y780D01*
X1613Y780D01*
X1614Y781D01*
X1616Y784D01*
X1619Y787D01*
X1619Y788D01*
X1620Y788D01*
X1621Y792D01*
X1622Y795D01*
X1623Y796D01*
X1623Y797D01*
X1623Y803D01*
X1623Y834D01*
X1625Y834D01*
X1625Y803D01*
X1625Y802D01*
X1625Y801D01*
X1626Y797D01*
X1626Y793D01*
X1627Y792D01*
X1627Y791D01*
X1629Y788D01*
X1631Y785D01*
X1632Y784D01*
X1632Y783D01*
X1635Y781D01*
X1638Y778D01*
X1639Y778D01*
X1640Y777D01*
X1643Y776D01*
X1647Y775D01*
X1648Y774D01*
X1649Y774D01*
X1654Y774D01*
X2250Y774D01*
X2250Y180D01*
X2250Y179D01*
X2250Y178D01*
X2251Y175D01*
X2251Y171D01*
X2252Y170D01*
X2252Y169D01*
X2254Y166D01*
X2256Y162D01*
X2257Y162D01*
X2257Y161D01*
X2260Y159D01*
X2263Y156D01*
X2264Y156D01*
X2265Y155D01*
X2268Y154D01*
X2272Y152D01*
X2273Y152D01*
X2274Y152D01*
X2279Y151D01*
X3721Y151D01*
X3722Y151D01*
X3723Y151D01*
X3727Y152D01*
X3730Y153D01*
X3731Y153D01*
X3732Y153D01*
X3735Y155D01*
X3739Y157D01*
X3739Y158D01*
X3740Y159D01*
X3743Y161D01*
X3745Y164D01*
X3746Y165D01*
X3746Y166D01*
X3748Y170D01*
X3749Y173D01*
X3749Y174D01*
X3750Y175D01*
X3750Y180D01*
X3750Y774D01*
X4346Y774D01*
X4347Y774D01*
X4348Y774D01*
X4352Y775D01*
X4355Y775D01*
X4356Y776D01*
X4357Y776D01*
X4360Y778D01*
X4364Y780D01*
X4365Y781D01*
X4368Y784D01*
X4370Y787D01*
X4371Y788D01*
X4373Y792D01*
X4374Y795D01*
X4374Y796D01*
X4375Y797D01*
X4375Y803D01*
X4375Y834D01*
X4377Y834D01*
X4377Y803D01*
X4377Y802D01*
X4377Y801D01*
X4378Y797D01*
X4378Y793D01*
X4379Y792D01*
X4379Y791D01*
X4381Y788D01*
X4383Y785D01*
X4383Y784D01*
X4384Y783D01*
X4387Y781D01*
X4390Y778D01*
X4391Y778D01*
X4391Y777D01*
X4395Y776D01*
X4398Y775D01*
X4399Y774D01*
X4400Y774D01*
X4406Y774D01*
X5002Y774D01*
X5002Y180D01*
X5002Y179D01*
X5002Y178D01*
X5003Y175D01*
X5003Y171D01*
X5004Y170D01*
X5004Y169D01*
X5006Y166D01*
X5008Y162D01*
X5009Y161D01*
X5012Y159D01*
X5015Y156D01*
X5016Y156D01*
X5016Y155D01*
X5020Y154D01*
X5023Y152D01*
X5024Y152D01*
X5025Y152D01*
X5031Y151D01*
X5332Y151D01*
X5333Y151D01*
X5334Y151D01*
X5337Y152D01*
X5341Y153D01*
X5342Y153D01*
X5343Y153D01*
X5346Y155D01*
X5350Y157D01*
X5350Y158D01*
X5351Y159D01*
X5353Y161D01*
X5356Y164D01*
X5356Y165D01*
X5357Y166D01*
X5358Y170D01*
X5360Y173D01*
X5360Y174D01*
X5360Y175D01*
X5361Y180D01*
X5361Y2031D01*
X5449Y2119D01*
X9905Y2119D01*
X9993Y2031D01*
X9993Y180D01*
X9993Y179D01*
X9993Y178D01*
X9994Y175D01*
X9995Y171D01*
X9995Y170D01*
X9996Y169D01*
X9998Y166D01*
X9999Y162D01*
X10000Y162D01*
X10001Y161D01*
X10004Y159D01*
X10006Y156D01*
X10007Y156D01*
X10008Y155D01*
X10012Y154D01*
X10015Y152D01*
X10016Y152D01*
X10017Y152D01*
X10023Y151D01*
X10469Y151D01*
X10470Y151D01*
X10471Y151D01*
X10475Y152D01*
X10479Y153D01*
X10480Y153D01*
X10481Y153D01*
X10484Y155D01*
X10487Y157D01*
X10488Y158D01*
X10489Y159D01*
X10491Y161D01*
X10494Y164D01*
X10494Y165D01*
X10495Y166D01*
X10496Y170D01*
X10497Y173D01*
X10498Y174D01*
X10498Y175D01*
X10498Y180D01*
X10498Y774D01*
X11094Y774D01*
X11095Y774D01*
X11096Y774D01*
X11100Y775D01*
X11104Y775D01*
X11105Y776D01*
X11106Y776D01*
X11109Y778D01*
X11112Y780D01*
X11113Y780D01*
X11114Y781D01*
X11116Y784D01*
X11119Y787D01*
X11119Y788D01*
X11120Y788D01*
X11121Y792D01*
X11122Y795D01*
X11123Y796D01*
X11123Y797D01*
X11123Y803D01*
X11123Y834D01*
X11125Y834D01*
X11125Y803D01*
X11125Y802D01*
X11125Y801D01*
X11126Y797D01*
X11126Y793D01*
X11127Y792D01*
X11127Y791D01*
X11129Y788D01*
X11131Y785D01*
X11132Y784D01*
X11132Y783D01*
X11135Y781D01*
X11138Y778D01*
X11139Y778D01*
X11140Y777D01*
X11143Y776D01*
X11147Y775D01*
X11148Y774D01*
X11149Y774D01*
X11154Y774D01*
X11750Y774D01*
X11750Y180D01*
X11750Y179D01*
X11750Y178D01*
X11751Y175D01*
X11751Y171D01*
X11752Y170D01*
X11752Y169D01*
X11754Y166D01*
X11756Y162D01*
X11757Y162D01*
X11757Y161D01*
X11760Y159D01*
X11763Y156D01*
X11764Y156D01*
X11765Y155D01*
X11768Y154D01*
X11772Y152D01*
X11773Y152D01*
X11774Y152D01*
X11779Y151D01*
X13221Y151D01*
X13222Y151D01*
X13223Y151D01*
X13227Y152D01*
X13230Y153D01*
X13231Y153D01*
X13232Y153D01*
X13235Y155D01*
X13239Y157D01*
X13239Y158D01*
X13240Y159D01*
X13243Y161D01*
X13245Y164D01*
X13246Y165D01*
X13246Y166D01*
X13248Y170D01*
X13249Y173D01*
X13249Y174D01*
X13250Y175D01*
X13250Y180D01*
X13250Y774D01*
X13846Y774D01*
X13847Y774D01*
X13848Y774D01*
X13852Y775D01*
X13855Y775D01*
X13856Y776D01*
X13857Y776D01*
X13860Y778D01*
X13864Y780D01*
X13865Y781D01*
X13868Y784D01*
X13870Y787D01*
X13871Y788D01*
X13873Y792D01*
X13874Y795D01*
X13874Y796D01*
X13875Y797D01*
X13875Y803D01*
X13875Y834D01*
X13877Y834D01*
X13877Y803D01*
X13877Y802D01*
X13877Y801D01*
X13878Y797D01*
X13878Y793D01*
X13879Y792D01*
X13879Y791D01*
X13881Y788D01*
X13883Y785D01*
X13883Y784D01*
X13884Y783D01*
X13887Y781D01*
X13890Y778D01*
X13891Y778D01*
X13891Y777D01*
X13895Y776D01*
X13898Y775D01*
X13899Y774D01*
X13900Y774D01*
X13906Y774D01*
X14502Y774D01*
X14502Y180D01*
X14502Y179D01*
X14502Y178D01*
X14503Y175D01*
X14503Y171D01*
X14504Y170D01*
X14504Y169D01*
X14506Y166D01*
X14508Y162D01*
X14509Y161D01*
X14512Y159D01*
X14515Y156D01*
X14516Y156D01*
X14516Y155D01*
X14520Y154D01*
X14523Y152D01*
X14524Y152D01*
X14525Y152D01*
X14531Y151D01*
X14567Y151D01*
X14568Y151D01*
X14569Y151D01*
X14664Y159D01*
X14665Y159D01*
X14666Y159D01*
X14671Y160D01*
X14852Y219D01*
X14853Y220D01*
X14855Y220D01*
X14860Y223D01*
X15013Y335D01*
X15015Y336D01*
X15016Y337D01*
X15020Y341D01*
X15132Y495D01*
X15132Y496D01*
X15134Y498D01*
X15136Y503D01*
X15194Y684D01*
X15195Y684D01*
X15195Y685D01*
X15196Y690D01*
X15203Y785D01*
X15203Y786D01*
X15203Y788D01*
X15203Y10394D01*
X15203Y10396D01*
X15196Y10491D01*
X15196Y10492D01*
X15194Y10498D01*
X15136Y10678D01*
X15135Y10680D01*
X15134Y10682D01*
X15132Y10687D01*
X15020Y10840D01*
X15019Y10842D01*
X15017Y10843D01*
X15013Y10847D01*
X14860Y10958D01*
X14858Y10959D01*
X14857Y10960D01*
X14852Y10963D01*
X14671Y11021D01*
X14670Y11021D01*
X14669Y11022D01*
X14664Y11023D01*
X14581Y11029D01*
X14580Y11029D01*
X14578Y11029D01*
X14531Y11029D01*
X14530Y11029D01*
X14529Y11029D01*
X14525Y11028D01*
X14521Y11028D01*
X14520Y11027D01*
X14519Y11027D01*
X14516Y11025D01*
X14513Y11023D01*
X14512Y11022D01*
X14511Y11022D01*
X14509Y11019D01*
X14506Y11016D01*
X14506Y11015D01*
X14505Y11014D01*
X14504Y11011D01*
X14503Y11007D01*
X14502Y11006D01*
X14502Y11005D01*
X14502Y11000D01*
X14502Y10426D01*
X13906Y10426D01*
X13905Y10426D01*
X13904Y10426D01*
X13900Y10425D01*
X13896Y10425D01*
X13895Y10424D01*
X13894Y10424D01*
X13891Y10422D01*
X13888Y10420D01*
X13887Y10420D01*
X13886Y10419D01*
X13884Y10416D01*
X13881Y10413D01*
X13881Y10412D01*
X13880Y10412D01*
X13879Y10408D01*
X13878Y10405D01*
X13877Y10404D01*
X13877Y10403D01*
X13877Y10397D01*
X13877Y10366D01*
X13875Y10366D01*
X13875Y10397D01*
X13875Y10398D01*
X13875Y10399D01*
X13874Y10403D01*
X13874Y10407D01*
X13873Y10408D01*
X13873Y10409D01*
X13871Y10412D01*
X13869Y10415D01*
X13868Y10416D01*
X13868Y10417D01*
X13865Y10419D01*
X13862Y10422D01*
X13861Y10422D01*
X13860Y10423D01*
X13857Y10424D01*
X13853Y10425D01*
X13852Y10426D01*
X13851Y10426D01*
X13846Y10426D01*
X13250Y10426D01*
X13250Y11000D01*
X13250Y11001D01*
X13250Y11002D01*
X13249Y11006D01*
X13249Y11009D01*
X13248Y11010D01*
X13248Y11011D01*
X13246Y11015D01*
X13244Y11018D01*
X13243Y11019D01*
X13240Y11022D01*
X13237Y11024D01*
X13236Y11025D01*
X13235Y11025D01*
X13232Y11027D01*
X13228Y11028D01*
X13227Y11028D01*
X13226Y11029D01*
X13221Y11029D01*
X11779Y11029D01*
X11778Y11029D01*
X11777Y11029D01*
X11773Y11028D01*
X11770Y11028D01*
X11769Y11027D01*
X11768Y11027D01*
X11765Y11025D01*
X11761Y11023D01*
X11761Y11022D01*
X11760Y11022D01*
X11757Y11019D01*
X11755Y11016D01*
X11754Y11015D01*
X11754Y11014D01*
X11752Y11011D01*
X11751Y11007D01*
X11751Y11006D01*
X11750Y11005D01*
X11750Y11000D01*
X11750Y10426D01*
X11154Y10426D01*
X11153Y10426D01*
X11152Y10426D01*
X11148Y10425D01*
X11145Y10425D01*
X11144Y10424D01*
X11143Y10424D01*
X11140Y10422D01*
X11136Y10420D01*
X11135Y10419D01*
X11132Y10416D01*
X11130Y10413D01*
X11129Y10412D01*
X11127Y10408D01*
X11126Y10405D01*
X11126Y10404D01*
X11125Y10403D01*
X11125Y10397D01*
X11125Y10366D01*
X11123Y10366D01*
X11123Y10397D01*
X11123Y10398D01*
X11123Y10399D01*
X11122Y10403D01*
X11122Y10407D01*
X11121Y10408D01*
X11121Y10409D01*
X11119Y10412D01*
X11117Y10415D01*
X11117Y10416D01*
X11116Y10417D01*
X11113Y10419D01*
X11110Y10422D01*
X11109Y10422D01*
X11109Y10423D01*
X11105Y10424D01*
X11102Y10425D01*
X11101Y10426D01*
X11100Y10426D01*
X11094Y10426D01*
X10498Y10426D01*
X10498Y11000D01*
X10498Y11001D01*
X10498Y11002D01*
X10497Y11006D01*
X10497Y11009D01*
X10496Y11010D01*
X10496Y11011D01*
X10494Y11015D01*
X10492Y11018D01*
X10492Y11019D01*
X10491Y11019D01*
X10488Y11022D01*
X10485Y11024D01*
X10484Y11025D01*
X10480Y11027D01*
X10477Y11028D01*
X10476Y11028D01*
X10475Y11029D01*
X10469Y11029D01*
X776Y11029D01*
X775Y11029D01*
X774Y11029D01*
X690Y11023D01*
X689Y11022D01*
X683Y11021D01*
X503Y10963D01*
X501Y10962D01*
X499Y10961D01*
X495Y10958D01*
X341Y10847D01*
X340Y10845D01*
X338Y10844D01*
X334Y10840D01*
X223Y10687D01*
X222Y10685D01*
X221Y10683D01*
X219Y10678D01*
X160Y10498D01*
X160Y10497D01*
X159Y10496D01*
X159Y10491D01*
X151Y10396D01*
X151Y10395D01*
X151Y10394D01*
X151Y788D01*
X151Y787D01*
X151Y785D01*
X159Y690D01*
X159Y689D01*
X160Y684D01*
X219Y503D01*
X219Y501D01*
X220Y499D01*
X223Y495D01*
X334Y341D01*
X336Y340D01*
X337Y338D01*
X341Y335D01*
X495Y223D01*
X496Y222D01*
X498Y221D01*
X503Y219D01*
X683Y160D01*
X684Y160D01*
X685Y160D01*
X690Y159D01*
X785Y151D01*
X786Y151D01*
X787Y151D01*
X969Y151D01*
X970Y151D01*
G37*
%LPC*%
G36*
X11183Y892D02*
X11183Y892D01*
X11183Y1759D01*
X11662Y1759D01*
X11688Y1752D01*
X11711Y1738D01*
X11730Y1720D01*
X11743Y1697D01*
X11750Y1671D01*
X11750Y892D01*
X11183Y892D01*
G37*
%LPD*%
%LPC*%
G36*
X13935Y892D02*
X13935Y892D01*
X13935Y1759D01*
X14414Y1759D01*
X14440Y1752D01*
X14463Y1738D01*
X14481Y1720D01*
X14495Y1697D01*
X14502Y1671D01*
X14502Y892D01*
X13935Y892D01*
G37*
%LPD*%
%LPC*%
G36*
X1683Y892D02*
X1683Y892D01*
X1683Y1759D01*
X2162Y1759D01*
X2188Y1752D01*
X2211Y1738D01*
X2230Y1720D01*
X2243Y1697D01*
X2250Y1671D01*
X2250Y892D01*
X1683Y892D01*
G37*
%LPD*%
%LPC*%
G36*
X4435Y892D02*
X4435Y892D01*
X4435Y1759D01*
X4914Y1759D01*
X4940Y1752D01*
X4963Y1738D01*
X4981Y1720D01*
X4995Y1697D01*
X5002Y1671D01*
X5002Y892D01*
X4435Y892D01*
G37*
%LPD*%
%LPC*%
G36*
X13935Y9441D02*
X13935Y9441D01*
X13935Y10308D01*
X14502Y10308D01*
X14502Y9529D01*
X14499Y9518D01*
X14495Y9503D01*
X14481Y9480D01*
X14463Y9462D01*
X14440Y9448D01*
X14414Y9441D01*
X13935Y9441D01*
G37*
%LPD*%
%LPC*%
G36*
X11183Y9441D02*
X11183Y9441D01*
X11183Y10308D01*
X11750Y10308D01*
X11750Y9529D01*
X11747Y9518D01*
X11743Y9503D01*
X11730Y9480D01*
X11711Y9462D01*
X11688Y9448D01*
X11662Y9441D01*
X11183Y9441D01*
G37*
%LPD*%
%LPC*%
G36*
X13250Y892D02*
X13250Y892D01*
X13250Y1671D01*
X13257Y1697D01*
X13270Y1720D01*
X13289Y1738D01*
X13312Y1752D01*
X13338Y1759D01*
X13817Y1759D01*
X13817Y892D01*
X13250Y892D01*
G37*
%LPD*%
%LPC*%
G36*
X10498Y892D02*
X10498Y892D01*
X10498Y1671D01*
X10505Y1697D01*
X10519Y1720D01*
X10537Y1738D01*
X10560Y1752D01*
X10586Y1759D01*
X11065Y1759D01*
X11065Y892D01*
X10498Y892D01*
G37*
%LPD*%
%LPC*%
G36*
X3750Y892D02*
X3750Y892D01*
X3750Y1671D01*
X3757Y1697D01*
X3770Y1720D01*
X3789Y1738D01*
X3812Y1752D01*
X3838Y1759D01*
X4317Y1759D01*
X4317Y892D01*
X3750Y892D01*
G37*
%LPD*%
%LPC*%
G36*
X998Y892D02*
X998Y892D01*
X998Y1671D01*
X1005Y1697D01*
X1019Y1720D01*
X1037Y1738D01*
X1060Y1752D01*
X1086Y1759D01*
X1565Y1759D01*
X1565Y892D01*
X998Y892D01*
G37*
%LPD*%
%LPC*%
G36*
X13338Y9441D02*
X13338Y9441D01*
X13312Y9448D01*
X13289Y9462D01*
X13270Y9480D01*
X13257Y9503D01*
X13250Y9529D01*
X13250Y10308D01*
X13817Y10308D01*
X13817Y9441D01*
X13338Y9441D01*
G37*
%LPD*%
%LPC*%
G36*
X10586Y9441D02*
X10586Y9441D01*
X10560Y9448D01*
X10537Y9462D01*
X10519Y9480D01*
X10505Y9503D01*
X10498Y9529D01*
X10498Y10308D01*
X11065Y10308D01*
X11065Y9441D01*
X10586Y9441D01*
G37*
%LPD*%
D10*
X11124Y10367D03*
X13876Y10367D03*
X13876Y833D03*
X11124Y833D03*
X4376Y833D03*
X1624Y833D03*
D11*
X4750Y6000D03*
M02*
