G04 EAGLE Gerber RS-274X export*
G75*
%MOIN*%
%FSLAX34Y34*%
%LPD*%
%INSilkscreen Top*%
%IPPOS*%
%AMOC8*
5,1,8,0,0,1.08239X$1,22.5*%
G01*
%ADD10C,0.007000*%
%ADD11C,0.003937*%
%ADD12C,0.003937*%
%ADD13C,0.004000*%
%ADD14C,0.008000*%
%ADD15C,0.006000*%


D10*
X785Y8765D02*
X785Y9355D01*
X1047Y9158D02*
X785Y8962D01*
X900Y9044D02*
X1047Y8765D01*
X1297Y8765D02*
X1297Y9158D01*
X1592Y9158D01*
X1609Y9157D01*
X1626Y9152D01*
X1641Y9145D01*
X1655Y9135D01*
X1667Y9123D01*
X1677Y9109D01*
X1684Y9094D01*
X1689Y9077D01*
X1690Y9060D01*
X1691Y9060D02*
X1691Y8765D01*
X1494Y8765D02*
X1494Y9158D01*
X1974Y8765D02*
X2170Y8765D01*
X2190Y8767D01*
X2210Y8771D01*
X2229Y8779D01*
X2247Y8790D01*
X2263Y8803D01*
X2276Y8819D01*
X2287Y8837D01*
X2295Y8856D01*
X2299Y8876D01*
X2301Y8896D01*
X2302Y8896D02*
X2302Y8962D01*
X2301Y8962D02*
X2299Y8982D01*
X2295Y9002D01*
X2287Y9021D01*
X2276Y9039D01*
X2263Y9055D01*
X2247Y9068D01*
X2229Y9079D01*
X2210Y9087D01*
X2190Y9091D01*
X2170Y9093D01*
X1974Y9093D01*
X1974Y9355D01*
X2302Y9355D01*
X2651Y8765D02*
X2815Y8765D01*
X2651Y8765D02*
X2634Y8766D01*
X2617Y8771D01*
X2602Y8778D01*
X2588Y8788D01*
X2576Y8800D01*
X2566Y8814D01*
X2559Y8829D01*
X2554Y8846D01*
X2553Y8863D01*
X2553Y9027D01*
X2555Y9049D01*
X2560Y9070D01*
X2569Y9089D01*
X2581Y9107D01*
X2595Y9123D01*
X2612Y9137D01*
X2631Y9147D01*
X2652Y9154D01*
X2673Y9158D01*
X2695Y9158D01*
X2716Y9154D01*
X2737Y9147D01*
X2756Y9137D01*
X2773Y9123D01*
X2787Y9107D01*
X2799Y9089D01*
X2808Y9070D01*
X2813Y9049D01*
X2815Y9027D01*
X2815Y8962D01*
X2553Y8962D01*
X3109Y8994D02*
X3273Y8929D01*
X3109Y8994D02*
X3095Y9002D01*
X3081Y9012D01*
X3071Y9025D01*
X3063Y9040D01*
X3058Y9056D01*
X3056Y9073D01*
X3058Y9090D01*
X3063Y9106D01*
X3071Y9121D01*
X3081Y9134D01*
X3094Y9144D01*
X3109Y9152D01*
X3125Y9157D01*
X3142Y9158D01*
X3180Y9155D01*
X3218Y9149D01*
X3254Y9139D01*
X3290Y9125D01*
X3273Y8929D02*
X3287Y8921D01*
X3301Y8911D01*
X3311Y8898D01*
X3319Y8883D01*
X3324Y8867D01*
X3326Y8850D01*
X3324Y8833D01*
X3319Y8817D01*
X3311Y8802D01*
X3301Y8789D01*
X3288Y8779D01*
X3273Y8771D01*
X3257Y8766D01*
X3240Y8765D01*
X3194Y8768D01*
X3149Y8774D01*
X3104Y8784D01*
X3060Y8798D01*
X1047Y8365D02*
X1047Y7775D01*
X883Y7775D01*
X866Y7776D01*
X849Y7781D01*
X834Y7788D01*
X820Y7798D01*
X808Y7810D01*
X798Y7824D01*
X791Y7839D01*
X786Y7856D01*
X785Y7873D01*
X785Y8070D01*
X786Y8087D01*
X791Y8104D01*
X798Y8119D01*
X808Y8133D01*
X820Y8145D01*
X834Y8155D01*
X849Y8162D01*
X866Y8167D01*
X883Y8168D01*
X1047Y8168D01*
X1335Y8168D02*
X1335Y7873D01*
X1336Y7856D01*
X1341Y7839D01*
X1348Y7824D01*
X1358Y7810D01*
X1370Y7798D01*
X1384Y7788D01*
X1399Y7781D01*
X1416Y7776D01*
X1433Y7775D01*
X1597Y7775D01*
X1597Y8168D01*
X1973Y8004D02*
X2120Y8004D01*
X1973Y8005D02*
X1953Y8003D01*
X1934Y7998D01*
X1916Y7990D01*
X1899Y7978D01*
X1885Y7964D01*
X1873Y7948D01*
X1865Y7929D01*
X1860Y7910D01*
X1858Y7890D01*
X1860Y7870D01*
X1865Y7851D01*
X1873Y7833D01*
X1885Y7816D01*
X1899Y7802D01*
X1915Y7790D01*
X1934Y7782D01*
X1953Y7777D01*
X1973Y7775D01*
X2120Y7775D01*
X2120Y8070D01*
X2119Y8087D01*
X2114Y8104D01*
X2107Y8119D01*
X2097Y8133D01*
X2085Y8145D01*
X2071Y8155D01*
X2056Y8162D01*
X2039Y8167D01*
X2022Y8168D01*
X1891Y8168D01*
X2395Y8365D02*
X2395Y7873D01*
X2396Y7856D01*
X2401Y7839D01*
X2408Y7824D01*
X2418Y7810D01*
X2430Y7798D01*
X2444Y7788D01*
X2459Y7781D01*
X2476Y7776D01*
X2493Y7775D01*
X2713Y8004D02*
X3106Y8004D01*
X3386Y8168D02*
X3386Y7578D01*
X3386Y8168D02*
X3550Y8168D01*
X3569Y8166D01*
X3588Y8161D01*
X3604Y8151D01*
X3619Y8139D01*
X3631Y8124D01*
X3641Y8108D01*
X3646Y8089D01*
X3648Y8070D01*
X3648Y7873D01*
X3647Y7856D01*
X3642Y7839D01*
X3635Y7824D01*
X3625Y7810D01*
X3613Y7798D01*
X3599Y7788D01*
X3584Y7781D01*
X3567Y7776D01*
X3550Y7775D01*
X3386Y7775D01*
X3890Y7906D02*
X3890Y8037D01*
X3892Y8059D01*
X3897Y8080D01*
X3906Y8099D01*
X3918Y8117D01*
X3932Y8133D01*
X3949Y8147D01*
X3968Y8157D01*
X3989Y8164D01*
X4010Y8168D01*
X4032Y8168D01*
X4053Y8164D01*
X4074Y8157D01*
X4093Y8147D01*
X4110Y8133D01*
X4124Y8117D01*
X4136Y8099D01*
X4145Y8080D01*
X4150Y8059D01*
X4152Y8037D01*
X4152Y7906D01*
X4150Y7884D01*
X4145Y7863D01*
X4136Y7844D01*
X4124Y7826D01*
X4110Y7810D01*
X4093Y7796D01*
X4074Y7786D01*
X4053Y7779D01*
X4032Y7775D01*
X4010Y7775D01*
X3989Y7779D01*
X3968Y7786D01*
X3949Y7796D01*
X3932Y7810D01*
X3918Y7826D01*
X3906Y7844D01*
X3897Y7863D01*
X3892Y7884D01*
X3890Y7906D01*
X4404Y7873D02*
X4404Y8365D01*
X4404Y7873D02*
X4405Y7856D01*
X4410Y7839D01*
X4417Y7824D01*
X4427Y7810D01*
X4439Y7798D01*
X4453Y7788D01*
X4468Y7781D01*
X4485Y7776D01*
X4502Y7775D01*
X5044Y7775D02*
X5044Y8365D01*
X5044Y7775D02*
X5208Y7775D01*
X5227Y7777D01*
X5246Y7782D01*
X5262Y7792D01*
X5277Y7804D01*
X5289Y7819D01*
X5299Y7835D01*
X5304Y7854D01*
X5306Y7873D01*
X5307Y7873D02*
X5307Y8070D01*
X5306Y8070D02*
X5305Y8087D01*
X5300Y8104D01*
X5293Y8119D01*
X5283Y8133D01*
X5271Y8145D01*
X5257Y8155D01*
X5242Y8162D01*
X5225Y8167D01*
X5208Y8168D01*
X5044Y8168D01*
X5660Y8004D02*
X5807Y8004D01*
X5660Y8005D02*
X5640Y8003D01*
X5621Y7998D01*
X5603Y7990D01*
X5586Y7978D01*
X5572Y7964D01*
X5560Y7948D01*
X5552Y7929D01*
X5547Y7910D01*
X5545Y7890D01*
X5547Y7870D01*
X5552Y7851D01*
X5560Y7833D01*
X5572Y7816D01*
X5586Y7802D01*
X5603Y7790D01*
X5621Y7782D01*
X5640Y7777D01*
X5660Y7775D01*
X5807Y7775D01*
X5807Y8070D01*
X5806Y8087D01*
X5801Y8104D01*
X5794Y8119D01*
X5784Y8133D01*
X5772Y8145D01*
X5758Y8155D01*
X5743Y8162D01*
X5726Y8167D01*
X5709Y8168D01*
X5578Y8168D01*
X6082Y8365D02*
X6082Y7873D01*
X6083Y7856D01*
X6088Y7839D01*
X6095Y7824D01*
X6105Y7810D01*
X6117Y7798D01*
X6131Y7788D01*
X6146Y7781D01*
X6163Y7776D01*
X6180Y7775D01*
X6407Y7873D02*
X6407Y8168D01*
X6407Y7873D02*
X6408Y7856D01*
X6413Y7839D01*
X6420Y7824D01*
X6430Y7810D01*
X6442Y7798D01*
X6456Y7788D01*
X6471Y7781D01*
X6488Y7776D01*
X6505Y7775D01*
X6669Y7775D01*
X6669Y8168D01*
X6953Y8168D02*
X6953Y7775D01*
X6953Y8168D02*
X7117Y8168D01*
X7136Y8166D01*
X7155Y8161D01*
X7171Y8151D01*
X7186Y8139D01*
X7198Y8124D01*
X7208Y8108D01*
X7213Y8089D01*
X7215Y8070D01*
X7215Y7775D01*
X916Y7440D02*
X889Y7406D01*
X866Y7370D01*
X845Y7332D01*
X827Y7292D01*
X812Y7251D01*
X800Y7209D01*
X792Y7167D01*
X787Y7123D01*
X785Y7080D01*
X787Y7037D01*
X792Y6993D01*
X800Y6951D01*
X812Y6909D01*
X827Y6868D01*
X845Y6828D01*
X866Y6790D01*
X889Y6754D01*
X916Y6720D01*
X1097Y7178D02*
X1293Y7178D01*
X1162Y7375D02*
X1162Y6883D01*
X1163Y6866D01*
X1168Y6849D01*
X1175Y6834D01*
X1185Y6820D01*
X1197Y6808D01*
X1211Y6798D01*
X1226Y6791D01*
X1243Y6786D01*
X1260Y6785D01*
X1293Y6785D01*
X1518Y6916D02*
X1518Y7047D01*
X1520Y7069D01*
X1525Y7090D01*
X1534Y7109D01*
X1546Y7127D01*
X1560Y7143D01*
X1577Y7157D01*
X1596Y7167D01*
X1617Y7174D01*
X1638Y7178D01*
X1660Y7178D01*
X1681Y7174D01*
X1702Y7167D01*
X1721Y7157D01*
X1738Y7143D01*
X1752Y7127D01*
X1764Y7109D01*
X1773Y7090D01*
X1778Y7069D01*
X1780Y7047D01*
X1780Y6916D01*
X1778Y6894D01*
X1773Y6873D01*
X1764Y6854D01*
X1752Y6836D01*
X1738Y6820D01*
X1721Y6806D01*
X1702Y6796D01*
X1681Y6789D01*
X1660Y6785D01*
X1638Y6785D01*
X1617Y6789D01*
X1596Y6796D01*
X1577Y6806D01*
X1560Y6820D01*
X1546Y6836D01*
X1534Y6854D01*
X1525Y6873D01*
X1520Y6894D01*
X1518Y6916D01*
X2048Y7178D02*
X2048Y6588D01*
X2048Y7178D02*
X2212Y7178D01*
X2231Y7176D01*
X2250Y7171D01*
X2266Y7161D01*
X2281Y7149D01*
X2293Y7134D01*
X2303Y7118D01*
X2308Y7099D01*
X2310Y7080D01*
X2310Y6883D01*
X2309Y6866D01*
X2304Y6849D01*
X2297Y6834D01*
X2287Y6820D01*
X2275Y6808D01*
X2261Y6798D01*
X2246Y6791D01*
X2229Y6786D01*
X2212Y6785D01*
X2048Y6785D01*
X2537Y6720D02*
X2564Y6754D01*
X2587Y6790D01*
X2608Y6828D01*
X2626Y6868D01*
X2641Y6909D01*
X2653Y6951D01*
X2661Y6993D01*
X2666Y7037D01*
X2668Y7080D01*
X2666Y7123D01*
X2661Y7167D01*
X2653Y7209D01*
X2641Y7251D01*
X2626Y7292D01*
X2608Y7332D01*
X2587Y7370D01*
X2564Y7406D01*
X2537Y7440D01*
D11*
X9049Y6000D02*
X9049Y3900D01*
X5951Y4016D02*
X5951Y6100D01*
D12*
X8878Y6772D03*
D11*
X8876Y6780D01*
X8872Y6786D01*
X8866Y6790D01*
X8858Y6792D01*
X8850Y6790D01*
X8844Y6786D01*
X8840Y6780D01*
X8838Y6772D01*
D12*
X8839Y6772D03*
D11*
X8838Y6772D02*
X8840Y6764D01*
X8844Y6758D01*
X8850Y6754D01*
X8858Y6752D01*
X8866Y6754D01*
X8872Y6758D01*
X8876Y6764D01*
X8878Y6772D01*
D13*
X9790Y6666D02*
X9790Y7126D01*
X9662Y7126D02*
X9918Y7126D01*
X10082Y7023D02*
X10210Y7126D01*
X10210Y6666D01*
X10082Y6666D02*
X10338Y6666D01*
D14*
X10669Y11810D02*
X11713Y11810D01*
X11713Y12657D01*
X11417Y12952D01*
X11417Y14448D01*
X11752Y14448D01*
X11752Y14911D01*
X13248Y14911D01*
X13248Y14448D01*
X13583Y14448D01*
X13583Y12952D01*
X13287Y12657D01*
X13287Y11810D01*
X14331Y11810D01*
X14016Y11239D02*
X10984Y11239D01*
X14331Y11239D02*
X14331Y11810D01*
X10669Y11810D02*
X10669Y11239D01*
D15*
X13957Y9120D02*
X13530Y8480D01*
X13957Y8480D02*
X13530Y9120D01*
X14181Y8978D02*
X14359Y9120D01*
X14359Y8480D01*
X14181Y8480D02*
X14537Y8480D01*
D14*
X14331Y-610D02*
X13287Y-610D01*
X13287Y-1457D01*
X13583Y-1752D01*
X13583Y-3248D01*
X13248Y-3248D01*
X13248Y-3711D01*
X11752Y-3711D01*
X11752Y-3248D01*
X11417Y-3248D01*
X11417Y-1752D01*
X11713Y-1457D01*
X11713Y-610D01*
X10669Y-610D01*
X10984Y-39D02*
X14016Y-39D01*
X10669Y-39D02*
X10669Y-610D01*
X14331Y-610D02*
X14331Y-39D01*
D15*
X13963Y2080D02*
X14390Y2720D01*
X13963Y2720D02*
X14390Y2080D01*
X14614Y2080D02*
X14792Y2080D01*
X14817Y2082D01*
X14842Y2087D01*
X14866Y2096D01*
X14888Y2108D01*
X14909Y2123D01*
X14927Y2141D01*
X14942Y2162D01*
X14954Y2184D01*
X14963Y2208D01*
X14968Y2233D01*
X14970Y2258D01*
X14968Y2283D01*
X14963Y2308D01*
X14954Y2332D01*
X14942Y2354D01*
X14927Y2375D01*
X14909Y2393D01*
X14888Y2408D01*
X14866Y2420D01*
X14842Y2429D01*
X14817Y2434D01*
X14792Y2436D01*
X14828Y2720D02*
X14614Y2720D01*
X14828Y2720D02*
X14850Y2718D01*
X14872Y2713D01*
X14892Y2705D01*
X14911Y2693D01*
X14928Y2678D01*
X14943Y2661D01*
X14955Y2642D01*
X14963Y2622D01*
X14968Y2600D01*
X14970Y2578D01*
X14968Y2556D01*
X14963Y2534D01*
X14955Y2514D01*
X14943Y2495D01*
X14928Y2478D01*
X14911Y2463D01*
X14892Y2451D01*
X14872Y2443D01*
X14850Y2438D01*
X14828Y2436D01*
X14686Y2436D01*
D14*
X4831Y-610D02*
X3787Y-610D01*
X3787Y-1457D01*
X4083Y-1752D01*
X4083Y-3248D01*
X3748Y-3248D01*
X3748Y-3711D01*
X2252Y-3711D01*
X2252Y-3248D01*
X1917Y-3248D01*
X1917Y-1752D01*
X2213Y-1457D01*
X2213Y-610D01*
X1169Y-610D01*
X1484Y-39D02*
X4516Y-39D01*
X1169Y-39D02*
X1169Y-610D01*
X4831Y-610D02*
X4831Y-39D01*
D15*
X890Y2720D02*
X463Y2080D01*
X890Y2080D02*
X463Y2720D01*
X1310Y2720D02*
X1333Y2718D01*
X1355Y2714D01*
X1376Y2706D01*
X1397Y2695D01*
X1415Y2681D01*
X1431Y2665D01*
X1445Y2647D01*
X1456Y2626D01*
X1464Y2605D01*
X1468Y2583D01*
X1470Y2560D01*
X1310Y2720D02*
X1284Y2718D01*
X1259Y2714D01*
X1234Y2706D01*
X1211Y2694D01*
X1189Y2681D01*
X1169Y2664D01*
X1151Y2645D01*
X1136Y2624D01*
X1124Y2602D01*
X1114Y2577D01*
X1417Y2435D02*
X1432Y2453D01*
X1446Y2472D01*
X1456Y2492D01*
X1464Y2514D01*
X1468Y2537D01*
X1470Y2560D01*
X1417Y2436D02*
X1114Y2080D01*
X1470Y2080D01*
M02*
